<?xml version="1.0" encoding="utf-8" standalone="no"?>
<!DOCTYPE svg PUBLIC "-//W3C//DTD SVG 1.1//EN"
  "http://www.w3.org/Graphics/SVG/1.1/DTD/svg11.dtd">
<svg xmlns:xlink="http://www.w3.org/1999/xlink" width="618.054062pt" height="603.0275pt" viewBox="0 0 618.054062 603.0275" xmlns="http://www.w3.org/2000/svg" version="1.1">
 <metadata>
  <rdf:RDF xmlns:dc="http://purl.org/dc/elements/1.1/" xmlns:cc="http://creativecommons.org/ns#" xmlns:rdf="http://www.w3.org/1999/02/22-rdf-syntax-ns#">
   <cc:Work>
    <dc:type rdf:resource="http://purl.org/dc/dcmitype/StillImage"/>
    <dc:date>2026-01-18T14:02:12.685519</dc:date>
    <dc:format>image/svg+xml</dc:format>
    <dc:creator>
     <cc:Agent>
      <dc:title>Matplotlib v3.10.3, https://matplotlib.org/</dc:title>
     </cc:Agent>
    </dc:creator>
   </cc:Work>
  </rdf:RDF>
 </metadata>
 <defs>
  <style type="text/css">*{stroke-linejoin: round; stroke-linecap: butt}</style>
 </defs>
 <g id="figure_1">
  <g id="patch_1">
   <path d="M 0 603.0275 
L 618.054062 603.0275 
L 618.054062 0 
L 0 0 
z
" style="fill: #ffffff"/>
  </g>
  <g id="axes_1">
   <g id="patch_2">
    <path d="M 52.854063 561.6 
L 610.854063 561.6 
L 610.854063 7.2 
L 52.854063 7.2 
z
" style="fill: #ffffff"/>
   </g>
   <g id="matplotlib.axis_1">
    <g id="xtick_1">
     <g id="line2d_1">
      <path d="M 99.354062 561.6 
L 99.354062 7.2 
" clip-path="url(#p4a0e3314aa)" style="fill: none; stroke: #b0b0b0; stroke-opacity: 0.4; stroke-width: 0.8; stroke-linecap: square"/>
     </g>
     <g id="line2d_2">
      <defs>
       <path id="md535d45a44" d="M 0 0 
L 0 3.5 
" style="stroke: #000000; stroke-width: 0.8"/>
      </defs>
      <g>
       <use xlink:href="#md535d45a44" x="99.354062" y="561.6" style="stroke: #000000; stroke-width: 0.8"/>
      </g>
     </g>
     <g id="text_1">
      <!-- −50 -->
      <g transform="translate(88.801719 576.198438) scale(0.1 -0.1)">
       <defs>
        <path id="DejaVuSans-2212" d="M 678 2272 
L 4684 2272 
L 4684 1741 
L 678 1741 
L 678 2272 
z
" transform="scale(0.015625)"/>
        <path id="DejaVuSans-35" d="M 691 4666 
L 3169 4666 
L 3169 4134 
L 1269 4134 
L 1269 2991 
Q 1406 3038 1543 3061 
Q 1681 3084 1819 3084 
Q 2600 3084 3056 2656 
Q 3513 2228 3513 1497 
Q 3513 744 3044 326 
Q 2575 -91 1722 -91 
Q 1428 -91 1123 -41 
Q 819 9 494 109 
L 494 744 
Q 775 591 1075 516 
Q 1375 441 1709 441 
Q 2250 441 2565 725 
Q 2881 1009 2881 1497 
Q 2881 1984 2565 2268 
Q 2250 2553 1709 2553 
Q 1456 2553 1204 2497 
Q 953 2441 691 2322 
L 691 4666 
z
" transform="scale(0.015625)"/>
        <path id="DejaVuSans-30" d="M 2034 4250 
Q 1547 4250 1301 3770 
Q 1056 3291 1056 2328 
Q 1056 1369 1301 889 
Q 1547 409 2034 409 
Q 2525 409 2770 889 
Q 3016 1369 3016 2328 
Q 3016 3291 2770 3770 
Q 2525 4250 2034 4250 
z
M 2034 4750 
Q 2819 4750 3233 4129 
Q 3647 3509 3647 2328 
Q 3647 1150 3233 529 
Q 2819 -91 2034 -91 
Q 1250 -91 836 529 
Q 422 1150 422 2328 
Q 422 3509 836 4129 
Q 1250 4750 2034 4750 
z
" transform="scale(0.015625)"/>
       </defs>
       <use xlink:href="#DejaVuSans-2212"/>
       <use xlink:href="#DejaVuSans-35" transform="translate(83.789062 0)"/>
       <use xlink:href="#DejaVuSans-30" transform="translate(147.412109 0)"/>
      </g>
     </g>
    </g>
    <g id="xtick_2">
     <g id="line2d_3">
      <path d="M 192.354063 561.6 
L 192.354063 7.2 
" clip-path="url(#p4a0e3314aa)" style="fill: none; stroke: #b0b0b0; stroke-opacity: 0.4; stroke-width: 0.8; stroke-linecap: square"/>
     </g>
     <g id="line2d_4">
      <g>
       <use xlink:href="#md535d45a44" x="192.354063" y="561.6" style="stroke: #000000; stroke-width: 0.8"/>
      </g>
     </g>
     <g id="text_2">
      <!-- −40 -->
      <g transform="translate(181.801719 576.198438) scale(0.1 -0.1)">
       <defs>
        <path id="DejaVuSans-34" d="M 2419 4116 
L 825 1625 
L 2419 1625 
L 2419 4116 
z
M 2253 4666 
L 3047 4666 
L 3047 1625 
L 3713 1625 
L 3713 1100 
L 3047 1100 
L 3047 0 
L 2419 0 
L 2419 1100 
L 313 1100 
L 313 1709 
L 2253 4666 
z
" transform="scale(0.015625)"/>
       </defs>
       <use xlink:href="#DejaVuSans-2212"/>
       <use xlink:href="#DejaVuSans-34" transform="translate(83.789062 0)"/>
       <use xlink:href="#DejaVuSans-30" transform="translate(147.412109 0)"/>
      </g>
     </g>
    </g>
    <g id="xtick_3">
     <g id="line2d_5">
      <path d="M 285.354063 561.6 
L 285.354063 7.2 
" clip-path="url(#p4a0e3314aa)" style="fill: none; stroke: #b0b0b0; stroke-opacity: 0.4; stroke-width: 0.8; stroke-linecap: square"/>
     </g>
     <g id="line2d_6">
      <g>
       <use xlink:href="#md535d45a44" x="285.354063" y="561.6" style="stroke: #000000; stroke-width: 0.8"/>
      </g>
     </g>
     <g id="text_3">
      <!-- −30 -->
      <g transform="translate(274.801719 576.198438) scale(0.1 -0.1)">
       <defs>
        <path id="DejaVuSans-33" d="M 2597 2516 
Q 3050 2419 3304 2112 
Q 3559 1806 3559 1356 
Q 3559 666 3084 287 
Q 2609 -91 1734 -91 
Q 1441 -91 1130 -33 
Q 819 25 488 141 
L 488 750 
Q 750 597 1062 519 
Q 1375 441 1716 441 
Q 2309 441 2620 675 
Q 2931 909 2931 1356 
Q 2931 1769 2642 2001 
Q 2353 2234 1838 2234 
L 1294 2234 
L 1294 2753 
L 1863 2753 
Q 2328 2753 2575 2939 
Q 2822 3125 2822 3475 
Q 2822 3834 2567 4026 
Q 2313 4219 1838 4219 
Q 1578 4219 1281 4162 
Q 984 4106 628 3988 
L 628 4550 
Q 988 4650 1302 4700 
Q 1616 4750 1894 4750 
Q 2613 4750 3031 4423 
Q 3450 4097 3450 3541 
Q 3450 3153 3228 2886 
Q 3006 2619 2597 2516 
z
" transform="scale(0.015625)"/>
       </defs>
       <use xlink:href="#DejaVuSans-2212"/>
       <use xlink:href="#DejaVuSans-33" transform="translate(83.789062 0)"/>
       <use xlink:href="#DejaVuSans-30" transform="translate(147.412109 0)"/>
      </g>
     </g>
    </g>
    <g id="xtick_4">
     <g id="line2d_7">
      <path d="M 378.354063 561.6 
L 378.354063 7.2 
" clip-path="url(#p4a0e3314aa)" style="fill: none; stroke: #b0b0b0; stroke-opacity: 0.4; stroke-width: 0.8; stroke-linecap: square"/>
     </g>
     <g id="line2d_8">
      <g>
       <use xlink:href="#md535d45a44" x="378.354063" y="561.6" style="stroke: #000000; stroke-width: 0.8"/>
      </g>
     </g>
     <g id="text_4">
      <!-- −20 -->
      <g transform="translate(367.801719 576.198438) scale(0.1 -0.1)">
       <defs>
        <path id="DejaVuSans-32" d="M 1228 531 
L 3431 531 
L 3431 0 
L 469 0 
L 469 531 
Q 828 903 1448 1529 
Q 2069 2156 2228 2338 
Q 2531 2678 2651 2914 
Q 2772 3150 2772 3378 
Q 2772 3750 2511 3984 
Q 2250 4219 1831 4219 
Q 1534 4219 1204 4116 
Q 875 4013 500 3803 
L 500 4441 
Q 881 4594 1212 4672 
Q 1544 4750 1819 4750 
Q 2544 4750 2975 4387 
Q 3406 4025 3406 3419 
Q 3406 3131 3298 2873 
Q 3191 2616 2906 2266 
Q 2828 2175 2409 1742 
Q 1991 1309 1228 531 
z
" transform="scale(0.015625)"/>
       </defs>
       <use xlink:href="#DejaVuSans-2212"/>
       <use xlink:href="#DejaVuSans-32" transform="translate(83.789062 0)"/>
       <use xlink:href="#DejaVuSans-30" transform="translate(147.412109 0)"/>
      </g>
     </g>
    </g>
    <g id="xtick_5">
     <g id="line2d_9">
      <path d="M 471.354063 561.6 
L 471.354063 7.2 
" clip-path="url(#p4a0e3314aa)" style="fill: none; stroke: #b0b0b0; stroke-opacity: 0.4; stroke-width: 0.8; stroke-linecap: square"/>
     </g>
     <g id="line2d_10">
      <g>
       <use xlink:href="#md535d45a44" x="471.354063" y="561.6" style="stroke: #000000; stroke-width: 0.8"/>
      </g>
     </g>
     <g id="text_5">
      <!-- −10 -->
      <g transform="translate(460.801719 576.198438) scale(0.1 -0.1)">
       <defs>
        <path id="DejaVuSans-31" d="M 794 531 
L 1825 531 
L 1825 4091 
L 703 3866 
L 703 4441 
L 1819 4666 
L 2450 4666 
L 2450 531 
L 3481 531 
L 3481 0 
L 794 0 
L 794 531 
z
" transform="scale(0.015625)"/>
       </defs>
       <use xlink:href="#DejaVuSans-2212"/>
       <use xlink:href="#DejaVuSans-31" transform="translate(83.789062 0)"/>
       <use xlink:href="#DejaVuSans-30" transform="translate(147.412109 0)"/>
      </g>
     </g>
    </g>
    <g id="xtick_6">
     <g id="line2d_11">
      <path d="M 564.354063 561.6 
L 564.354063 7.2 
" clip-path="url(#p4a0e3314aa)" style="fill: none; stroke: #b0b0b0; stroke-opacity: 0.4; stroke-width: 0.8; stroke-linecap: square"/>
     </g>
     <g id="line2d_12">
      <g>
       <use xlink:href="#md535d45a44" x="564.354063" y="561.6" style="stroke: #000000; stroke-width: 0.8"/>
      </g>
     </g>
     <g id="text_6">
      <!-- 0 -->
      <g transform="translate(561.172813 576.198438) scale(0.1 -0.1)">
       <use xlink:href="#DejaVuSans-30"/>
      </g>
     </g>
    </g>
    <g id="text_7">
     <!-- Cataloged declination (°) -->
     <g transform="translate(244.184531 592.915938) scale(0.14 -0.14)">
      <defs>
       <path id="DejaVuSans-43" d="M 4122 4306 
L 4122 3641 
Q 3803 3938 3442 4084 
Q 3081 4231 2675 4231 
Q 1875 4231 1450 3742 
Q 1025 3253 1025 2328 
Q 1025 1406 1450 917 
Q 1875 428 2675 428 
Q 3081 428 3442 575 
Q 3803 722 4122 1019 
L 4122 359 
Q 3791 134 3420 21 
Q 3050 -91 2638 -91 
Q 1578 -91 968 557 
Q 359 1206 359 2328 
Q 359 3453 968 4101 
Q 1578 4750 2638 4750 
Q 3056 4750 3426 4639 
Q 3797 4528 4122 4306 
z
" transform="scale(0.015625)"/>
       <path id="DejaVuSans-61" d="M 2194 1759 
Q 1497 1759 1228 1600 
Q 959 1441 959 1056 
Q 959 750 1161 570 
Q 1363 391 1709 391 
Q 2188 391 2477 730 
Q 2766 1069 2766 1631 
L 2766 1759 
L 2194 1759 
z
M 3341 1997 
L 3341 0 
L 2766 0 
L 2766 531 
Q 2569 213 2275 61 
Q 1981 -91 1556 -91 
Q 1019 -91 701 211 
Q 384 513 384 1019 
Q 384 1609 779 1909 
Q 1175 2209 1959 2209 
L 2766 2209 
L 2766 2266 
Q 2766 2663 2505 2880 
Q 2244 3097 1772 3097 
Q 1472 3097 1187 3025 
Q 903 2953 641 2809 
L 641 3341 
Q 956 3463 1253 3523 
Q 1550 3584 1831 3584 
Q 2591 3584 2966 3190 
Q 3341 2797 3341 1997 
z
" transform="scale(0.015625)"/>
       <path id="DejaVuSans-74" d="M 1172 4494 
L 1172 3500 
L 2356 3500 
L 2356 3053 
L 1172 3053 
L 1172 1153 
Q 1172 725 1289 603 
Q 1406 481 1766 481 
L 2356 481 
L 2356 0 
L 1766 0 
Q 1100 0 847 248 
Q 594 497 594 1153 
L 594 3053 
L 172 3053 
L 172 3500 
L 594 3500 
L 594 4494 
L 1172 4494 
z
" transform="scale(0.015625)"/>
       <path id="DejaVuSans-6c" d="M 603 4863 
L 1178 4863 
L 1178 0 
L 603 0 
L 603 4863 
z
" transform="scale(0.015625)"/>
       <path id="DejaVuSans-6f" d="M 1959 3097 
Q 1497 3097 1228 2736 
Q 959 2375 959 1747 
Q 959 1119 1226 758 
Q 1494 397 1959 397 
Q 2419 397 2687 759 
Q 2956 1122 2956 1747 
Q 2956 2369 2687 2733 
Q 2419 3097 1959 3097 
z
M 1959 3584 
Q 2709 3584 3137 3096 
Q 3566 2609 3566 1747 
Q 3566 888 3137 398 
Q 2709 -91 1959 -91 
Q 1206 -91 779 398 
Q 353 888 353 1747 
Q 353 2609 779 3096 
Q 1206 3584 1959 3584 
z
" transform="scale(0.015625)"/>
       <path id="DejaVuSans-67" d="M 2906 1791 
Q 2906 2416 2648 2759 
Q 2391 3103 1925 3103 
Q 1463 3103 1205 2759 
Q 947 2416 947 1791 
Q 947 1169 1205 825 
Q 1463 481 1925 481 
Q 2391 481 2648 825 
Q 2906 1169 2906 1791 
z
M 3481 434 
Q 3481 -459 3084 -895 
Q 2688 -1331 1869 -1331 
Q 1566 -1331 1297 -1286 
Q 1028 -1241 775 -1147 
L 775 -588 
Q 1028 -725 1275 -790 
Q 1522 -856 1778 -856 
Q 2344 -856 2625 -561 
Q 2906 -266 2906 331 
L 2906 616 
Q 2728 306 2450 153 
Q 2172 0 1784 0 
Q 1141 0 747 490 
Q 353 981 353 1791 
Q 353 2603 747 3093 
Q 1141 3584 1784 3584 
Q 2172 3584 2450 3431 
Q 2728 3278 2906 2969 
L 2906 3500 
L 3481 3500 
L 3481 434 
z
" transform="scale(0.015625)"/>
       <path id="DejaVuSans-65" d="M 3597 1894 
L 3597 1613 
L 953 1613 
Q 991 1019 1311 708 
Q 1631 397 2203 397 
Q 2534 397 2845 478 
Q 3156 559 3463 722 
L 3463 178 
Q 3153 47 2828 -22 
Q 2503 -91 2169 -91 
Q 1331 -91 842 396 
Q 353 884 353 1716 
Q 353 2575 817 3079 
Q 1281 3584 2069 3584 
Q 2775 3584 3186 3129 
Q 3597 2675 3597 1894 
z
M 3022 2063 
Q 3016 2534 2758 2815 
Q 2500 3097 2075 3097 
Q 1594 3097 1305 2825 
Q 1016 2553 972 2059 
L 3022 2063 
z
" transform="scale(0.015625)"/>
       <path id="DejaVuSans-64" d="M 2906 2969 
L 2906 4863 
L 3481 4863 
L 3481 0 
L 2906 0 
L 2906 525 
Q 2725 213 2448 61 
Q 2172 -91 1784 -91 
Q 1150 -91 751 415 
Q 353 922 353 1747 
Q 353 2572 751 3078 
Q 1150 3584 1784 3584 
Q 2172 3584 2448 3432 
Q 2725 3281 2906 2969 
z
M 947 1747 
Q 947 1113 1208 752 
Q 1469 391 1925 391 
Q 2381 391 2643 752 
Q 2906 1113 2906 1747 
Q 2906 2381 2643 2742 
Q 2381 3103 1925 3103 
Q 1469 3103 1208 2742 
Q 947 2381 947 1747 
z
" transform="scale(0.015625)"/>
       <path id="DejaVuSans-20" transform="scale(0.015625)"/>
       <path id="DejaVuSans-63" d="M 3122 3366 
L 3122 2828 
Q 2878 2963 2633 3030 
Q 2388 3097 2138 3097 
Q 1578 3097 1268 2742 
Q 959 2388 959 1747 
Q 959 1106 1268 751 
Q 1578 397 2138 397 
Q 2388 397 2633 464 
Q 2878 531 3122 666 
L 3122 134 
Q 2881 22 2623 -34 
Q 2366 -91 2075 -91 
Q 1284 -91 818 406 
Q 353 903 353 1747 
Q 353 2603 823 3093 
Q 1294 3584 2113 3584 
Q 2378 3584 2631 3529 
Q 2884 3475 3122 3366 
z
" transform="scale(0.015625)"/>
       <path id="DejaVuSans-69" d="M 603 3500 
L 1178 3500 
L 1178 0 
L 603 0 
L 603 3500 
z
M 603 4863 
L 1178 4863 
L 1178 4134 
L 603 4134 
L 603 4863 
z
" transform="scale(0.015625)"/>
       <path id="DejaVuSans-6e" d="M 3513 2113 
L 3513 0 
L 2938 0 
L 2938 2094 
Q 2938 2591 2744 2837 
Q 2550 3084 2163 3084 
Q 1697 3084 1428 2787 
Q 1159 2491 1159 1978 
L 1159 0 
L 581 0 
L 581 3500 
L 1159 3500 
L 1159 2956 
Q 1366 3272 1645 3428 
Q 1925 3584 2291 3584 
Q 2894 3584 3203 3211 
Q 3513 2838 3513 2113 
z
" transform="scale(0.015625)"/>
       <path id="DejaVuSans-28" d="M 1984 4856 
Q 1566 4138 1362 3434 
Q 1159 2731 1159 2009 
Q 1159 1288 1364 580 
Q 1569 -128 1984 -844 
L 1484 -844 
Q 1016 -109 783 600 
Q 550 1309 550 2009 
Q 550 2706 781 3412 
Q 1013 4119 1484 4856 
L 1984 4856 
z
" transform="scale(0.015625)"/>
       <path id="DejaVuSans-b0" d="M 1600 4347 
Q 1350 4347 1178 4173 
Q 1006 4000 1006 3750 
Q 1006 3503 1178 3333 
Q 1350 3163 1600 3163 
Q 1850 3163 2022 3333 
Q 2194 3503 2194 3750 
Q 2194 3997 2020 4172 
Q 1847 4347 1600 4347 
z
M 1600 4750 
Q 1800 4750 1984 4673 
Q 2169 4597 2303 4453 
Q 2447 4313 2519 4134 
Q 2591 3956 2591 3750 
Q 2591 3338 2302 3052 
Q 2013 2766 1594 2766 
Q 1172 2766 890 3047 
Q 609 3328 609 3750 
Q 609 4169 896 4459 
Q 1184 4750 1600 4750 
z
" transform="scale(0.015625)"/>
       <path id="DejaVuSans-29" d="M 513 4856 
L 1013 4856 
Q 1481 4119 1714 3412 
Q 1947 2706 1947 2009 
Q 1947 1309 1714 600 
Q 1481 -109 1013 -844 
L 513 -844 
Q 928 -128 1133 580 
Q 1338 1288 1338 2009 
Q 1338 2731 1133 3434 
Q 928 4138 513 4856 
z
" transform="scale(0.015625)"/>
      </defs>
      <use xlink:href="#DejaVuSans-43"/>
      <use xlink:href="#DejaVuSans-61" transform="translate(69.824219 0)"/>
      <use xlink:href="#DejaVuSans-74" transform="translate(131.103516 0)"/>
      <use xlink:href="#DejaVuSans-61" transform="translate(170.3125 0)"/>
      <use xlink:href="#DejaVuSans-6c" transform="translate(231.591797 0)"/>
      <use xlink:href="#DejaVuSans-6f" transform="translate(259.375 0)"/>
      <use xlink:href="#DejaVuSans-67" transform="translate(320.556641 0)"/>
      <use xlink:href="#DejaVuSans-65" transform="translate(384.033203 0)"/>
      <use xlink:href="#DejaVuSans-64" transform="translate(445.556641 0)"/>
      <use xlink:href="#DejaVuSans-20" transform="translate(509.033203 0)"/>
      <use xlink:href="#DejaVuSans-64" transform="translate(540.820312 0)"/>
      <use xlink:href="#DejaVuSans-65" transform="translate(604.296875 0)"/>
      <use xlink:href="#DejaVuSans-63" transform="translate(665.820312 0)"/>
      <use xlink:href="#DejaVuSans-6c" transform="translate(720.800781 0)"/>
      <use xlink:href="#DejaVuSans-69" transform="translate(748.583984 0)"/>
      <use xlink:href="#DejaVuSans-6e" transform="translate(776.367188 0)"/>
      <use xlink:href="#DejaVuSans-61" transform="translate(839.746094 0)"/>
      <use xlink:href="#DejaVuSans-74" transform="translate(901.025391 0)"/>
      <use xlink:href="#DejaVuSans-69" transform="translate(940.234375 0)"/>
      <use xlink:href="#DejaVuSans-6f" transform="translate(968.017578 0)"/>
      <use xlink:href="#DejaVuSans-6e" transform="translate(1029.199219 0)"/>
      <use xlink:href="#DejaVuSans-20" transform="translate(1092.578125 0)"/>
      <use xlink:href="#DejaVuSans-28" transform="translate(1124.365234 0)"/>
      <use xlink:href="#DejaVuSans-b0" transform="translate(1163.378906 0)"/>
      <use xlink:href="#DejaVuSans-29" transform="translate(1213.378906 0)"/>
     </g>
    </g>
   </g>
   <g id="matplotlib.axis_2">
    <g id="ytick_1">
     <g id="line2d_13">
      <path d="M 52.854063 515.4 
L 610.854063 515.4 
" clip-path="url(#p4a0e3314aa)" style="fill: none; stroke: #b0b0b0; stroke-opacity: 0.4; stroke-width: 0.8; stroke-linecap: square"/>
     </g>
     <g id="line2d_14">
      <defs>
       <path id="m8765d9c2e0" d="M 0 0 
L -3.5 0 
" style="stroke: #000000; stroke-width: 0.8"/>
      </defs>
      <g>
       <use xlink:href="#m8765d9c2e0" x="52.854063" y="515.4" style="stroke: #000000; stroke-width: 0.8"/>
      </g>
     </g>
     <g id="text_8">
      <!-- −50 -->
      <g transform="translate(24.749375 519.199219) scale(0.1 -0.1)">
       <use xlink:href="#DejaVuSans-2212"/>
       <use xlink:href="#DejaVuSans-35" transform="translate(83.789062 0)"/>
       <use xlink:href="#DejaVuSans-30" transform="translate(147.412109 0)"/>
      </g>
     </g>
    </g>
    <g id="ytick_2">
     <g id="line2d_15">
      <path d="M 52.854063 423 
L 610.854063 423 
" clip-path="url(#p4a0e3314aa)" style="fill: none; stroke: #b0b0b0; stroke-opacity: 0.4; stroke-width: 0.8; stroke-linecap: square"/>
     </g>
     <g id="line2d_16">
      <g>
       <use xlink:href="#m8765d9c2e0" x="52.854063" y="423" style="stroke: #000000; stroke-width: 0.8"/>
      </g>
     </g>
     <g id="text_9">
      <!-- −40 -->
      <g transform="translate(24.749375 426.799219) scale(0.1 -0.1)">
       <use xlink:href="#DejaVuSans-2212"/>
       <use xlink:href="#DejaVuSans-34" transform="translate(83.789062 0)"/>
       <use xlink:href="#DejaVuSans-30" transform="translate(147.412109 0)"/>
      </g>
     </g>
    </g>
    <g id="ytick_3">
     <g id="line2d_17">
      <path d="M 52.854063 330.6 
L 610.854063 330.6 
" clip-path="url(#p4a0e3314aa)" style="fill: none; stroke: #b0b0b0; stroke-opacity: 0.4; stroke-width: 0.8; stroke-linecap: square"/>
     </g>
     <g id="line2d_18">
      <g>
       <use xlink:href="#m8765d9c2e0" x="52.854063" y="330.6" style="stroke: #000000; stroke-width: 0.8"/>
      </g>
     </g>
     <g id="text_10">
      <!-- −30 -->
      <g transform="translate(24.749375 334.399219) scale(0.1 -0.1)">
       <use xlink:href="#DejaVuSans-2212"/>
       <use xlink:href="#DejaVuSans-33" transform="translate(83.789062 0)"/>
       <use xlink:href="#DejaVuSans-30" transform="translate(147.412109 0)"/>
      </g>
     </g>
    </g>
    <g id="ytick_4">
     <g id="line2d_19">
      <path d="M 52.854063 238.2 
L 610.854063 238.2 
" clip-path="url(#p4a0e3314aa)" style="fill: none; stroke: #b0b0b0; stroke-opacity: 0.4; stroke-width: 0.8; stroke-linecap: square"/>
     </g>
     <g id="line2d_20">
      <g>
       <use xlink:href="#m8765d9c2e0" x="52.854063" y="238.2" style="stroke: #000000; stroke-width: 0.8"/>
      </g>
     </g>
     <g id="text_11">
      <!-- −20 -->
      <g transform="translate(24.749375 241.999219) scale(0.1 -0.1)">
       <use xlink:href="#DejaVuSans-2212"/>
       <use xlink:href="#DejaVuSans-32" transform="translate(83.789062 0)"/>
       <use xlink:href="#DejaVuSans-30" transform="translate(147.412109 0)"/>
      </g>
     </g>
    </g>
    <g id="ytick_5">
     <g id="line2d_21">
      <path d="M 52.854063 145.8 
L 610.854063 145.8 
" clip-path="url(#p4a0e3314aa)" style="fill: none; stroke: #b0b0b0; stroke-opacity: 0.4; stroke-width: 0.8; stroke-linecap: square"/>
     </g>
     <g id="line2d_22">
      <g>
       <use xlink:href="#m8765d9c2e0" x="52.854063" y="145.8" style="stroke: #000000; stroke-width: 0.8"/>
      </g>
     </g>
     <g id="text_12">
      <!-- −10 -->
      <g transform="translate(24.749375 149.599219) scale(0.1 -0.1)">
       <use xlink:href="#DejaVuSans-2212"/>
       <use xlink:href="#DejaVuSans-31" transform="translate(83.789062 0)"/>
       <use xlink:href="#DejaVuSans-30" transform="translate(147.412109 0)"/>
      </g>
     </g>
    </g>
    <g id="ytick_6">
     <g id="line2d_23">
      <path d="M 52.854063 53.4 
L 610.854063 53.4 
" clip-path="url(#p4a0e3314aa)" style="fill: none; stroke: #b0b0b0; stroke-opacity: 0.4; stroke-width: 0.8; stroke-linecap: square"/>
     </g>
     <g id="line2d_24">
      <g>
       <use xlink:href="#m8765d9c2e0" x="52.854063" y="53.4" style="stroke: #000000; stroke-width: 0.8"/>
      </g>
     </g>
     <g id="text_13">
      <!-- 0 -->
      <g transform="translate(39.491563 57.199219) scale(0.1 -0.1)">
       <use xlink:href="#DejaVuSans-30"/>
      </g>
     </g>
    </g>
    <g id="text_14">
     <!-- Predicted declination from observer/peak coordinates and globe geometry (°) -->
     <g transform="translate(17.837812 556.766719) rotate(-90) scale(0.14 -0.14)">
      <defs>
       <path id="DejaVuSans-50" d="M 1259 4147 
L 1259 2394 
L 2053 2394 
Q 2494 2394 2734 2622 
Q 2975 2850 2975 3272 
Q 2975 3691 2734 3919 
Q 2494 4147 2053 4147 
L 1259 4147 
z
M 628 4666 
L 2053 4666 
Q 2838 4666 3239 4311 
Q 3641 3956 3641 3272 
Q 3641 2581 3239 2228 
Q 2838 1875 2053 1875 
L 1259 1875 
L 1259 0 
L 628 0 
L 628 4666 
z
" transform="scale(0.015625)"/>
       <path id="DejaVuSans-72" d="M 2631 2963 
Q 2534 3019 2420 3045 
Q 2306 3072 2169 3072 
Q 1681 3072 1420 2755 
Q 1159 2438 1159 1844 
L 1159 0 
L 581 0 
L 581 3500 
L 1159 3500 
L 1159 2956 
Q 1341 3275 1631 3429 
Q 1922 3584 2338 3584 
Q 2397 3584 2469 3576 
Q 2541 3569 2628 3553 
L 2631 2963 
z
" transform="scale(0.015625)"/>
       <path id="DejaVuSans-66" d="M 2375 4863 
L 2375 4384 
L 1825 4384 
Q 1516 4384 1395 4259 
Q 1275 4134 1275 3809 
L 1275 3500 
L 2222 3500 
L 2222 3053 
L 1275 3053 
L 1275 0 
L 697 0 
L 697 3053 
L 147 3053 
L 147 3500 
L 697 3500 
L 697 3744 
Q 697 4328 969 4595 
Q 1241 4863 1831 4863 
L 2375 4863 
z
" transform="scale(0.015625)"/>
       <path id="DejaVuSans-6d" d="M 3328 2828 
Q 3544 3216 3844 3400 
Q 4144 3584 4550 3584 
Q 5097 3584 5394 3201 
Q 5691 2819 5691 2113 
L 5691 0 
L 5113 0 
L 5113 2094 
Q 5113 2597 4934 2840 
Q 4756 3084 4391 3084 
Q 3944 3084 3684 2787 
Q 3425 2491 3425 1978 
L 3425 0 
L 2847 0 
L 2847 2094 
Q 2847 2600 2669 2842 
Q 2491 3084 2119 3084 
Q 1678 3084 1418 2786 
Q 1159 2488 1159 1978 
L 1159 0 
L 581 0 
L 581 3500 
L 1159 3500 
L 1159 2956 
Q 1356 3278 1631 3431 
Q 1906 3584 2284 3584 
Q 2666 3584 2933 3390 
Q 3200 3197 3328 2828 
z
" transform="scale(0.015625)"/>
       <path id="DejaVuSans-62" d="M 3116 1747 
Q 3116 2381 2855 2742 
Q 2594 3103 2138 3103 
Q 1681 3103 1420 2742 
Q 1159 2381 1159 1747 
Q 1159 1113 1420 752 
Q 1681 391 2138 391 
Q 2594 391 2855 752 
Q 3116 1113 3116 1747 
z
M 1159 2969 
Q 1341 3281 1617 3432 
Q 1894 3584 2278 3584 
Q 2916 3584 3314 3078 
Q 3713 2572 3713 1747 
Q 3713 922 3314 415 
Q 2916 -91 2278 -91 
Q 1894 -91 1617 61 
Q 1341 213 1159 525 
L 1159 0 
L 581 0 
L 581 4863 
L 1159 4863 
L 1159 2969 
z
" transform="scale(0.015625)"/>
       <path id="DejaVuSans-73" d="M 2834 3397 
L 2834 2853 
Q 2591 2978 2328 3040 
Q 2066 3103 1784 3103 
Q 1356 3103 1142 2972 
Q 928 2841 928 2578 
Q 928 2378 1081 2264 
Q 1234 2150 1697 2047 
L 1894 2003 
Q 2506 1872 2764 1633 
Q 3022 1394 3022 966 
Q 3022 478 2636 193 
Q 2250 -91 1575 -91 
Q 1294 -91 989 -36 
Q 684 19 347 128 
L 347 722 
Q 666 556 975 473 
Q 1284 391 1588 391 
Q 1994 391 2212 530 
Q 2431 669 2431 922 
Q 2431 1156 2273 1281 
Q 2116 1406 1581 1522 
L 1381 1569 
Q 847 1681 609 1914 
Q 372 2147 372 2553 
Q 372 3047 722 3315 
Q 1072 3584 1716 3584 
Q 2034 3584 2315 3537 
Q 2597 3491 2834 3397 
z
" transform="scale(0.015625)"/>
       <path id="DejaVuSans-76" d="M 191 3500 
L 800 3500 
L 1894 563 
L 2988 3500 
L 3597 3500 
L 2284 0 
L 1503 0 
L 191 3500 
z
" transform="scale(0.015625)"/>
       <path id="DejaVuSans-2f" d="M 1625 4666 
L 2156 4666 
L 531 -594 
L 0 -594 
L 1625 4666 
z
" transform="scale(0.015625)"/>
       <path id="DejaVuSans-70" d="M 1159 525 
L 1159 -1331 
L 581 -1331 
L 581 3500 
L 1159 3500 
L 1159 2969 
Q 1341 3281 1617 3432 
Q 1894 3584 2278 3584 
Q 2916 3584 3314 3078 
Q 3713 2572 3713 1747 
Q 3713 922 3314 415 
Q 2916 -91 2278 -91 
Q 1894 -91 1617 61 
Q 1341 213 1159 525 
z
M 3116 1747 
Q 3116 2381 2855 2742 
Q 2594 3103 2138 3103 
Q 1681 3103 1420 2742 
Q 1159 2381 1159 1747 
Q 1159 1113 1420 752 
Q 1681 391 2138 391 
Q 2594 391 2855 752 
Q 3116 1113 3116 1747 
z
" transform="scale(0.015625)"/>
       <path id="DejaVuSans-6b" d="M 581 4863 
L 1159 4863 
L 1159 1991 
L 2875 3500 
L 3609 3500 
L 1753 1863 
L 3688 0 
L 2938 0 
L 1159 1709 
L 1159 0 
L 581 0 
L 581 4863 
z
" transform="scale(0.015625)"/>
       <path id="DejaVuSans-79" d="M 2059 -325 
Q 1816 -950 1584 -1140 
Q 1353 -1331 966 -1331 
L 506 -1331 
L 506 -850 
L 844 -850 
Q 1081 -850 1212 -737 
Q 1344 -625 1503 -206 
L 1606 56 
L 191 3500 
L 800 3500 
L 1894 763 
L 2988 3500 
L 3597 3500 
L 2059 -325 
z
" transform="scale(0.015625)"/>
      </defs>
      <use xlink:href="#DejaVuSans-50"/>
      <use xlink:href="#DejaVuSans-72" transform="translate(58.552734 0)"/>
      <use xlink:href="#DejaVuSans-65" transform="translate(97.416016 0)"/>
      <use xlink:href="#DejaVuSans-64" transform="translate(158.939453 0)"/>
      <use xlink:href="#DejaVuSans-69" transform="translate(222.416016 0)"/>
      <use xlink:href="#DejaVuSans-63" transform="translate(250.199219 0)"/>
      <use xlink:href="#DejaVuSans-74" transform="translate(305.179688 0)"/>
      <use xlink:href="#DejaVuSans-65" transform="translate(344.388672 0)"/>
      <use xlink:href="#DejaVuSans-64" transform="translate(405.912109 0)"/>
      <use xlink:href="#DejaVuSans-20" transform="translate(469.388672 0)"/>
      <use xlink:href="#DejaVuSans-64" transform="translate(501.175781 0)"/>
      <use xlink:href="#DejaVuSans-65" transform="translate(564.652344 0)"/>
      <use xlink:href="#DejaVuSans-63" transform="translate(626.175781 0)"/>
      <use xlink:href="#DejaVuSans-6c" transform="translate(681.15625 0)"/>
      <use xlink:href="#DejaVuSans-69" transform="translate(708.939453 0)"/>
      <use xlink:href="#DejaVuSans-6e" transform="translate(736.722656 0)"/>
      <use xlink:href="#DejaVuSans-61" transform="translate(800.101562 0)"/>
      <use xlink:href="#DejaVuSans-74" transform="translate(861.380859 0)"/>
      <use xlink:href="#DejaVuSans-69" transform="translate(900.589844 0)"/>
      <use xlink:href="#DejaVuSans-6f" transform="translate(928.373047 0)"/>
      <use xlink:href="#DejaVuSans-6e" transform="translate(989.554688 0)"/>
      <use xlink:href="#DejaVuSans-20" transform="translate(1052.933594 0)"/>
      <use xlink:href="#DejaVuSans-66" transform="translate(1084.720703 0)"/>
      <use xlink:href="#DejaVuSans-72" transform="translate(1119.925781 0)"/>
      <use xlink:href="#DejaVuSans-6f" transform="translate(1158.789062 0)"/>
      <use xlink:href="#DejaVuSans-6d" transform="translate(1219.970703 0)"/>
      <use xlink:href="#DejaVuSans-20" transform="translate(1317.382812 0)"/>
      <use xlink:href="#DejaVuSans-6f" transform="translate(1349.169922 0)"/>
      <use xlink:href="#DejaVuSans-62" transform="translate(1410.351562 0)"/>
      <use xlink:href="#DejaVuSans-73" transform="translate(1473.828125 0)"/>
      <use xlink:href="#DejaVuSans-65" transform="translate(1525.927734 0)"/>
      <use xlink:href="#DejaVuSans-72" transform="translate(1587.451172 0)"/>
      <use xlink:href="#DejaVuSans-76" transform="translate(1628.564453 0)"/>
      <use xlink:href="#DejaVuSans-65" transform="translate(1687.744141 0)"/>
      <use xlink:href="#DejaVuSans-72" transform="translate(1749.267578 0)"/>
      <use xlink:href="#DejaVuSans-2f" transform="translate(1790.380859 0)"/>
      <use xlink:href="#DejaVuSans-70" transform="translate(1824.072266 0)"/>
      <use xlink:href="#DejaVuSans-65" transform="translate(1887.548828 0)"/>
      <use xlink:href="#DejaVuSans-61" transform="translate(1949.072266 0)"/>
      <use xlink:href="#DejaVuSans-6b" transform="translate(2010.351562 0)"/>
      <use xlink:href="#DejaVuSans-20" transform="translate(2068.261719 0)"/>
      <use xlink:href="#DejaVuSans-63" transform="translate(2100.048828 0)"/>
      <use xlink:href="#DejaVuSans-6f" transform="translate(2155.029297 0)"/>
      <use xlink:href="#DejaVuSans-6f" transform="translate(2216.210938 0)"/>
      <use xlink:href="#DejaVuSans-72" transform="translate(2277.392578 0)"/>
      <use xlink:href="#DejaVuSans-64" transform="translate(2316.755859 0)"/>
      <use xlink:href="#DejaVuSans-69" transform="translate(2380.232422 0)"/>
      <use xlink:href="#DejaVuSans-6e" transform="translate(2408.015625 0)"/>
      <use xlink:href="#DejaVuSans-61" transform="translate(2471.394531 0)"/>
      <use xlink:href="#DejaVuSans-74" transform="translate(2532.673828 0)"/>
      <use xlink:href="#DejaVuSans-65" transform="translate(2571.882812 0)"/>
      <use xlink:href="#DejaVuSans-73" transform="translate(2633.40625 0)"/>
      <use xlink:href="#DejaVuSans-20" transform="translate(2685.505859 0)"/>
      <use xlink:href="#DejaVuSans-61" transform="translate(2717.292969 0)"/>
      <use xlink:href="#DejaVuSans-6e" transform="translate(2778.572266 0)"/>
      <use xlink:href="#DejaVuSans-64" transform="translate(2841.951172 0)"/>
      <use xlink:href="#DejaVuSans-20" transform="translate(2905.427734 0)"/>
      <use xlink:href="#DejaVuSans-67" transform="translate(2937.214844 0)"/>
      <use xlink:href="#DejaVuSans-6c" transform="translate(3000.691406 0)"/>
      <use xlink:href="#DejaVuSans-6f" transform="translate(3028.474609 0)"/>
      <use xlink:href="#DejaVuSans-62" transform="translate(3089.65625 0)"/>
      <use xlink:href="#DejaVuSans-65" transform="translate(3153.132812 0)"/>
      <use xlink:href="#DejaVuSans-20" transform="translate(3214.65625 0)"/>
      <use xlink:href="#DejaVuSans-67" transform="translate(3246.443359 0)"/>
      <use xlink:href="#DejaVuSans-65" transform="translate(3309.919922 0)"/>
      <use xlink:href="#DejaVuSans-6f" transform="translate(3371.443359 0)"/>
      <use xlink:href="#DejaVuSans-6d" transform="translate(3432.625 0)"/>
      <use xlink:href="#DejaVuSans-65" transform="translate(3530.037109 0)"/>
      <use xlink:href="#DejaVuSans-74" transform="translate(3591.560547 0)"/>
      <use xlink:href="#DejaVuSans-72" transform="translate(3630.769531 0)"/>
      <use xlink:href="#DejaVuSans-79" transform="translate(3671.882812 0)"/>
      <use xlink:href="#DejaVuSans-20" transform="translate(3731.0625 0)"/>
      <use xlink:href="#DejaVuSans-28" transform="translate(3762.849609 0)"/>
      <use xlink:href="#DejaVuSans-b0" transform="translate(3801.863281 0)"/>
      <use xlink:href="#DejaVuSans-29" transform="translate(3851.863281 0)"/>
     </g>
    </g>
   </g>
   <g id="line2d_25">
    <defs>
     <path id="m59252d03d1" d="M 0 -6 
L -1.347084 -1.854102 
L -5.706339 -1.854102 
L -2.179628 0.708204 
L -3.526712 4.854102 
L -0 2.291796 
L 3.526712 4.854102 
L 2.179628 0.708204 
L 5.706339 -1.854102 
L 1.347084 -1.854102 
z
" style="stroke: #000000; stroke-opacity: 0.5; stroke-width: 0.25; stroke-linejoin: bevel"/>
    </defs>
    <g clip-path="url(#p4a0e3314aa)">
     <use xlink:href="#m59252d03d1" x="433.532516" y="184.404873" style="fill: #d32f2f; fill-opacity: 0.5; stroke: #000000; stroke-opacity: 0.5; stroke-width: 0.25; stroke-linejoin: bevel"/>
     <use xlink:href="#m59252d03d1" x="432.91148" y="184.404873" style="fill: #d32f2f; fill-opacity: 0.5; stroke: #000000; stroke-opacity: 0.5; stroke-width: 0.25; stroke-linejoin: bevel"/>
     <use xlink:href="#m59252d03d1" x="433.532516" y="184.404873" style="fill: #d32f2f; fill-opacity: 0.5; stroke: #000000; stroke-opacity: 0.5; stroke-width: 0.25; stroke-linejoin: bevel"/>
     <use xlink:href="#m59252d03d1" x="433.56248" y="184.404873" style="fill: #d32f2f; fill-opacity: 0.5; stroke: #000000; stroke-opacity: 0.5; stroke-width: 0.25; stroke-linejoin: bevel"/>
     <use xlink:href="#m59252d03d1" x="433.038834" y="184.404873" style="fill: #d32f2f; fill-opacity: 0.5; stroke: #000000; stroke-opacity: 0.5; stroke-width: 0.25; stroke-linejoin: bevel"/>
     <use xlink:href="#m59252d03d1" x="433.086627" y="184.404873" style="fill: #d32f2f; fill-opacity: 0.5; stroke: #000000; stroke-opacity: 0.5; stroke-width: 0.25; stroke-linejoin: bevel"/>
     <use xlink:href="#m59252d03d1" x="433.348059" y="184.404873" style="fill: #d32f2f; fill-opacity: 0.5; stroke: #000000; stroke-opacity: 0.5; stroke-width: 0.25; stroke-linejoin: bevel"/>
     <use xlink:href="#m59252d03d1" x="433.354783" y="184.404873" style="fill: #d32f2f; fill-opacity: 0.5; stroke: #000000; stroke-opacity: 0.5; stroke-width: 0.25; stroke-linejoin: bevel"/>
     <use xlink:href="#m59252d03d1" x="431.693952" y="184.404873" style="fill: #d32f2f; fill-opacity: 0.5; stroke: #000000; stroke-opacity: 0.5; stroke-width: 0.25; stroke-linejoin: bevel"/>
     <use xlink:href="#m59252d03d1" x="433.093091" y="184.404873" style="fill: #d32f2f; fill-opacity: 0.5; stroke: #000000; stroke-opacity: 0.5; stroke-width: 0.25; stroke-linejoin: bevel"/>
     <use xlink:href="#m59252d03d1" x="433.112202" y="184.404873" style="fill: #d32f2f; fill-opacity: 0.5; stroke: #000000; stroke-opacity: 0.5; stroke-width: 0.25; stroke-linejoin: bevel"/>
     <use xlink:href="#m59252d03d1" x="433.532516" y="184.404873" style="fill: #d32f2f; fill-opacity: 0.5; stroke: #000000; stroke-opacity: 0.5; stroke-width: 0.25; stroke-linejoin: bevel"/>
     <use xlink:href="#m59252d03d1" x="433.099284" y="184.404873" style="fill: #d32f2f; fill-opacity: 0.5; stroke: #000000; stroke-opacity: 0.5; stroke-width: 0.25; stroke-linejoin: bevel"/>
     <use xlink:href="#m59252d03d1" x="432.91148" y="184.404873" style="fill: #d32f2f; fill-opacity: 0.5; stroke: #000000; stroke-opacity: 0.5; stroke-width: 0.25; stroke-linejoin: bevel"/>
     <use xlink:href="#m59252d03d1" x="433.354783" y="184.404873" style="fill: #d32f2f; fill-opacity: 0.5; stroke: #000000; stroke-opacity: 0.5; stroke-width: 0.25; stroke-linejoin: bevel"/>
     <use xlink:href="#m59252d03d1" x="431.693952" y="184.404873" style="fill: #d32f2f; fill-opacity: 0.5; stroke: #000000; stroke-opacity: 0.5; stroke-width: 0.25; stroke-linejoin: bevel"/>
     <use xlink:href="#m59252d03d1" x="433.093091" y="184.404873" style="fill: #d32f2f; fill-opacity: 0.5; stroke: #000000; stroke-opacity: 0.5; stroke-width: 0.25; stroke-linejoin: bevel"/>
    </g>
   </g>
   <g id="line2d_26">
    <defs>
     <path id="me3a08c0d74" d="M 0 -6 
L -1.347084 -1.854102 
L -5.706339 -1.854102 
L -2.179628 0.708204 
L -3.526712 4.854102 
L -0 2.291796 
L 3.526712 4.854102 
L 2.179628 0.708204 
L 5.706339 -1.854102 
L 1.347084 -1.854102 
z
" style="stroke: #000000; stroke-opacity: 0.5; stroke-width: 0.25; stroke-linejoin: bevel"/>
    </defs>
    <g clip-path="url(#p4a0e3314aa)">
     <use xlink:href="#me3a08c0d74" x="518.150891" y="98.305749" style="fill: #1976d2; fill-opacity: 0.5; stroke: #000000; stroke-opacity: 0.5; stroke-width: 0.25; stroke-linejoin: bevel"/>
     <use xlink:href="#me3a08c0d74" x="519.23847" y="98.305749" style="fill: #1976d2; fill-opacity: 0.5; stroke: #000000; stroke-opacity: 0.5; stroke-width: 0.25; stroke-linejoin: bevel"/>
     <use xlink:href="#me3a08c0d74" x="519.140559" y="98.305749" style="fill: #1976d2; fill-opacity: 0.5; stroke: #000000; stroke-opacity: 0.5; stroke-width: 0.25; stroke-linejoin: bevel"/>
     <use xlink:href="#me3a08c0d74" x="518.78277" y="98.305749" style="fill: #1976d2; fill-opacity: 0.5; stroke: #000000; stroke-opacity: 0.5; stroke-width: 0.25; stroke-linejoin: bevel"/>
     <use xlink:href="#me3a08c0d74" x="520.652591" y="98.305749" style="fill: #1976d2; fill-opacity: 0.5; stroke: #000000; stroke-opacity: 0.5; stroke-width: 0.25; stroke-linejoin: bevel"/>
     <use xlink:href="#me3a08c0d74" x="518.671691" y="98.305749" style="fill: #1976d2; fill-opacity: 0.5; stroke: #000000; stroke-opacity: 0.5; stroke-width: 0.25; stroke-linejoin: bevel"/>
    </g>
   </g>
   <g id="line2d_27">
    <defs>
     <path id="m83af488581" d="M 0 -6 
L -1.347084 -1.854102 
L -5.706339 -1.854102 
L -2.179628 0.708204 
L -3.526712 4.854102 
L -0 2.291796 
L 3.526712 4.854102 
L 2.179628 0.708204 
L 5.706339 -1.854102 
L 1.347084 -1.854102 
z
" style="stroke: #000000; stroke-opacity: 0.5; stroke-width: 0.25; stroke-linejoin: bevel"/>
    </defs>
    <g clip-path="url(#p4a0e3314aa)">
     <use xlink:href="#m83af488581" x="279.691134" y="335.779638" style="fill: #388e3c; fill-opacity: 0.5; stroke: #000000; stroke-opacity: 0.5; stroke-width: 0.25; stroke-linejoin: bevel"/>
     <use xlink:href="#m83af488581" x="280.43307" y="335.779638" style="fill: #388e3c; fill-opacity: 0.5; stroke: #000000; stroke-opacity: 0.5; stroke-width: 0.25; stroke-linejoin: bevel"/>
     <use xlink:href="#m83af488581" x="278.791359" y="335.779638" style="fill: #388e3c; fill-opacity: 0.5; stroke: #000000; stroke-opacity: 0.5; stroke-width: 0.25; stroke-linejoin: bevel"/>
     <use xlink:href="#m83af488581" x="280.336713" y="335.779638" style="fill: #388e3c; fill-opacity: 0.5; stroke: #000000; stroke-opacity: 0.5; stroke-width: 0.25; stroke-linejoin: bevel"/>
     <use xlink:href="#m83af488581" x="279.68003" y="335.779638" style="fill: #388e3c; fill-opacity: 0.5; stroke: #000000; stroke-opacity: 0.5; stroke-width: 0.25; stroke-linejoin: bevel"/>
     <use xlink:href="#m83af488581" x="281.484742" y="335.779638" style="fill: #388e3c; fill-opacity: 0.5; stroke: #000000; stroke-opacity: 0.5; stroke-width: 0.25; stroke-linejoin: bevel"/>
    </g>
   </g>
   <g id="line2d_28">
    <defs>
     <path id="m6136d5a333" d="M 0 -6 
L -1.347084 -1.854102 
L -5.706339 -1.854102 
L -2.179628 0.708204 
L -3.526712 4.854102 
L -0 2.291796 
L 3.526712 4.854102 
L 2.179628 0.708204 
L 5.706339 -1.854102 
L 1.347084 -1.854102 
z
" style="stroke: #000000; stroke-opacity: 0.5; stroke-width: 0.25; stroke-linejoin: bevel"/>
    </defs>
    <g clip-path="url(#p4a0e3314aa)">
     <use xlink:href="#m6136d5a333" x="329.699308" y="287.088177" style="fill: #f57c00; fill-opacity: 0.5; stroke: #000000; stroke-opacity: 0.5; stroke-width: 0.25; stroke-linejoin: bevel"/>
     <use xlink:href="#m6136d5a333" x="329.940848" y="287.088177" style="fill: #f57c00; fill-opacity: 0.5; stroke: #000000; stroke-opacity: 0.5; stroke-width: 0.25; stroke-linejoin: bevel"/>
    </g>
   </g>
   <g id="line2d_29">
    <defs>
     <path id="mc01ac22b17" d="M 0 -6 
L -1.347084 -1.854102 
L -5.706339 -1.854102 
L -2.179628 0.708204 
L -3.526712 4.854102 
L -0 2.291796 
L 3.526712 4.854102 
L 2.179628 0.708204 
L 5.706339 -1.854102 
L 1.347084 -1.854102 
z
" style="stroke: #000000; stroke-opacity: 0.5; stroke-width: 0.25; stroke-linejoin: bevel"/>
    </defs>
    <g clip-path="url(#p4a0e3314aa)">
     <use xlink:href="#mc01ac22b17" x="269.190142" y="343.565319" style="fill: #7b1fa2; fill-opacity: 0.5; stroke: #000000; stroke-opacity: 0.5; stroke-width: 0.25; stroke-linejoin: bevel"/>
     <use xlink:href="#mc01ac22b17" x="273.111384" y="343.565319" style="fill: #7b1fa2; fill-opacity: 0.5; stroke: #000000; stroke-opacity: 0.5; stroke-width: 0.25; stroke-linejoin: bevel"/>
     <use xlink:href="#mc01ac22b17" x="272.496813" y="343.565319" style="fill: #7b1fa2; fill-opacity: 0.5; stroke: #000000; stroke-opacity: 0.5; stroke-width: 0.25; stroke-linejoin: bevel"/>
    </g>
   </g>
   <g id="line2d_30">
    <defs>
     <path id="md7ab9c1e91" d="M 0 -6 
L -1.347084 -1.854102 
L -5.706339 -1.854102 
L -2.179628 0.708204 
L -3.526712 4.854102 
L -0 2.291796 
L 3.526712 4.854102 
L 2.179628 0.708204 
L 5.706339 -1.854102 
L 1.347084 -1.854102 
z
" style="stroke: #000000; stroke-opacity: 0.5; stroke-width: 0.25; stroke-linejoin: bevel"/>
    </defs>
    <g clip-path="url(#p4a0e3314aa)">
     <use xlink:href="#md7ab9c1e91" x="293.326227" y="322.997069" style="fill: #0097a7; fill-opacity: 0.5; stroke: #000000; stroke-opacity: 0.5; stroke-width: 0.25; stroke-linejoin: bevel"/>
     <use xlink:href="#md7ab9c1e91" x="293.294709" y="322.997069" style="fill: #0097a7; fill-opacity: 0.5; stroke: #000000; stroke-opacity: 0.5; stroke-width: 0.25; stroke-linejoin: bevel"/>
     <use xlink:href="#md7ab9c1e91" x="293.622534" y="322.997069" style="fill: #0097a7; fill-opacity: 0.5; stroke: #000000; stroke-opacity: 0.5; stroke-width: 0.25; stroke-linejoin: bevel"/>
    </g>
   </g>
   <g id="line2d_31">
    <defs>
     <path id="mff6b620a70" d="M 0 -6 
L -1.347084 -1.854102 
L -5.706339 -1.854102 
L -2.179628 0.708204 
L -3.526712 4.854102 
L -0 2.291796 
L 3.526712 4.854102 
L 2.179628 0.708204 
L 5.706339 -1.854102 
L 1.347084 -1.854102 
z
" style="stroke: #000000; stroke-opacity: 0.5; stroke-width: 0.25; stroke-linejoin: bevel"/>
    </defs>
    <g clip-path="url(#p4a0e3314aa)">
     <use xlink:href="#mff6b620a70" x="129.101145" y="481.701889" style="fill: #ff00ff; fill-opacity: 0.5; stroke: #000000; stroke-opacity: 0.5; stroke-width: 0.25; stroke-linejoin: bevel"/>
     <use xlink:href="#mff6b620a70" x="128.240895" y="481.701889" style="fill: #ff00ff; fill-opacity: 0.5; stroke: #000000; stroke-opacity: 0.5; stroke-width: 0.25; stroke-linejoin: bevel"/>
     <use xlink:href="#mff6b620a70" x="128.932973" y="481.701889" style="fill: #ff00ff; fill-opacity: 0.5; stroke: #000000; stroke-opacity: 0.5; stroke-width: 0.25; stroke-linejoin: bevel"/>
    </g>
   </g>
   <g id="line2d_32">
    <path d="M 99.354062 515.4 
L 104.051032 510.733333 
L 108.748002 506.066667 
L 113.444972 501.4 
L 118.141941 496.733333 
L 122.838911 492.066667 
L 127.535881 487.4 
L 132.23285 482.733333 
L 136.92982 478.066667 
L 141.62679 473.4 
L 146.323759 468.733333 
L 151.020729 464.066667 
L 155.717699 459.4 
L 160.414669 454.733333 
L 165.111638 450.066667 
L 169.808608 445.4 
L 174.505578 440.733333 
L 179.202547 436.066667 
L 183.899517 431.4 
L 188.596487 426.733333 
L 193.293456 422.066667 
L 197.990426 417.4 
L 202.687396 412.733333 
L 207.384366 408.066667 
L 212.081335 403.4 
L 216.778305 398.733333 
L 221.475275 394.066667 
L 226.172244 389.4 
L 230.869214 384.733333 
L 235.566184 380.066667 
L 240.263153 375.4 
L 244.960123 370.733333 
L 249.657093 366.066667 
L 254.354063 361.4 
L 259.051032 356.733333 
L 263.748002 352.066667 
L 268.444972 347.4 
L 273.141941 342.733333 
L 277.838911 338.066667 
L 282.535881 333.4 
L 287.23285 328.733333 
L 291.92982 324.066667 
L 296.62679 319.4 
L 301.323759 314.733333 
L 306.020729 310.066667 
L 310.717699 305.4 
L 315.414669 300.733333 
L 320.111638 296.066667 
L 324.808608 291.4 
L 329.505578 286.733333 
L 334.202547 282.066667 
L 338.899517 277.4 
L 343.596487 272.733333 
L 348.293456 268.066667 
L 352.990426 263.4 
L 357.687396 258.733333 
L 362.384366 254.066667 
L 367.081335 249.4 
L 371.778305 244.733333 
L 376.475275 240.066667 
L 381.172244 235.4 
L 385.869214 230.733333 
L 390.566184 226.066667 
L 395.263153 221.4 
L 399.960123 216.733333 
L 404.657093 212.066667 
L 409.354063 207.4 
L 414.051032 202.733333 
L 418.748002 198.066667 
L 423.444972 193.4 
L 428.141941 188.733333 
L 432.838911 184.066667 
L 437.535881 179.4 
L 442.23285 174.733333 
L 446.92982 170.066667 
L 451.62679 165.4 
L 456.323759 160.733333 
L 461.020729 156.066667 
L 465.717699 151.4 
L 470.414669 146.733333 
L 475.111638 142.066667 
L 479.808608 137.4 
L 484.505578 132.733333 
L 489.202547 128.066667 
L 493.899517 123.4 
L 498.596487 118.733333 
L 503.293456 114.066667 
L 507.990426 109.4 
L 512.687396 104.733333 
L 517.384366 100.066667 
L 522.081335 95.4 
L 526.778305 90.733333 
L 531.475275 86.066667 
L 536.172244 81.4 
L 540.869214 76.733333 
L 545.566184 72.066667 
L 550.263153 67.4 
L 554.960123 62.733333 
L 559.657093 58.066667 
L 564.354063 53.4 
" clip-path="url(#p4a0e3314aa)" style="fill: none; stroke: #000000; stroke-linecap: square"/>
   </g>
   <g id="patch_3">
    <path d="M 52.854063 561.6 
L 52.854063 7.2 
" style="fill: none; stroke: #000000; stroke-width: 0.8; stroke-linejoin: miter; stroke-linecap: square"/>
   </g>
   <g id="patch_4">
    <path d="M 610.854063 561.6 
L 610.854063 7.2 
" style="fill: none; stroke: #000000; stroke-width: 0.8; stroke-linejoin: miter; stroke-linecap: square"/>
   </g>
   <g id="patch_5">
    <path d="M 52.854062 561.6 
L 610.854063 561.6 
" style="fill: none; stroke: #000000; stroke-width: 0.8; stroke-linejoin: miter; stroke-linecap: square"/>
   </g>
   <g id="patch_6">
    <path d="M 52.854062 7.2 
L 610.854063 7.2 
" style="fill: none; stroke: #000000; stroke-width: 0.8; stroke-linejoin: miter; stroke-linecap: square"/>
   </g>
   <g id="text_15">
    <!-- Pikes Peak -->
    <g style="fill: #d32f2f" transform="translate(436.793035 195.162383) scale(0.1 -0.1)">
     <use xlink:href="#DejaVuSans-50"/>
     <use xlink:href="#DejaVuSans-69" transform="translate(58.052734 0)"/>
     <use xlink:href="#DejaVuSans-6b" transform="translate(85.835938 0)"/>
     <use xlink:href="#DejaVuSans-65" transform="translate(140.121094 0)"/>
     <use xlink:href="#DejaVuSans-73" transform="translate(201.644531 0)"/>
     <use xlink:href="#DejaVuSans-20" transform="translate(253.744141 0)"/>
     <use xlink:href="#DejaVuSans-50" transform="translate(285.53125 0)"/>
     <use xlink:href="#DejaVuSans-65" transform="translate(342.208984 0)"/>
     <use xlink:href="#DejaVuSans-61" transform="translate(403.732422 0)"/>
     <use xlink:href="#DejaVuSans-6b" transform="translate(465.011719 0)"/>
    </g>
    <!-- (17 occultations) -->
    <g style="fill: #d32f2f" transform="translate(436.793035 206.360195) scale(0.1 -0.1)">
     <defs>
      <path id="DejaVuSans-37" d="M 525 4666 
L 3525 4666 
L 3525 4397 
L 1831 0 
L 1172 0 
L 2766 4134 
L 525 4134 
L 525 4666 
z
" transform="scale(0.015625)"/>
      <path id="DejaVuSans-75" d="M 544 1381 
L 544 3500 
L 1119 3500 
L 1119 1403 
Q 1119 906 1312 657 
Q 1506 409 1894 409 
Q 2359 409 2629 706 
Q 2900 1003 2900 1516 
L 2900 3500 
L 3475 3500 
L 3475 0 
L 2900 0 
L 2900 538 
Q 2691 219 2414 64 
Q 2138 -91 1772 -91 
Q 1169 -91 856 284 
Q 544 659 544 1381 
z
M 1991 3584 
L 1991 3584 
z
" transform="scale(0.015625)"/>
     </defs>
     <use xlink:href="#DejaVuSans-28"/>
     <use xlink:href="#DejaVuSans-31" transform="translate(39.013672 0)"/>
     <use xlink:href="#DejaVuSans-37" transform="translate(102.636719 0)"/>
     <use xlink:href="#DejaVuSans-20" transform="translate(166.259766 0)"/>
     <use xlink:href="#DejaVuSans-6f" transform="translate(198.046875 0)"/>
     <use xlink:href="#DejaVuSans-63" transform="translate(259.228516 0)"/>
     <use xlink:href="#DejaVuSans-63" transform="translate(314.208984 0)"/>
     <use xlink:href="#DejaVuSans-75" transform="translate(369.189453 0)"/>
     <use xlink:href="#DejaVuSans-6c" transform="translate(432.568359 0)"/>
     <use xlink:href="#DejaVuSans-74" transform="translate(460.351562 0)"/>
     <use xlink:href="#DejaVuSans-61" transform="translate(499.560547 0)"/>
     <use xlink:href="#DejaVuSans-74" transform="translate(560.839844 0)"/>
     <use xlink:href="#DejaVuSans-69" transform="translate(600.048828 0)"/>
     <use xlink:href="#DejaVuSans-6f" transform="translate(627.832031 0)"/>
     <use xlink:href="#DejaVuSans-6e" transform="translate(689.013672 0)"/>
     <use xlink:href="#DejaVuSans-73" transform="translate(752.392578 0)"/>
     <use xlink:href="#DejaVuSans-29" transform="translate(804.492188 0)"/>
    </g>
    <!-- declination: -14.12°±0.06° -->
    <g style="fill: #d32f2f" transform="translate(436.793035 217.558008) scale(0.1 -0.1)">
     <defs>
      <path id="DejaVuSans-3a" d="M 750 794 
L 1409 794 
L 1409 0 
L 750 0 
L 750 794 
z
M 750 3309 
L 1409 3309 
L 1409 2516 
L 750 2516 
L 750 3309 
z
" transform="scale(0.015625)"/>
      <path id="DejaVuSans-2d" d="M 313 2009 
L 1997 2009 
L 1997 1497 
L 313 1497 
L 313 2009 
z
" transform="scale(0.015625)"/>
      <path id="DejaVuSans-2e" d="M 684 794 
L 1344 794 
L 1344 0 
L 684 0 
L 684 794 
z
" transform="scale(0.015625)"/>
      <path id="DejaVuSans-b1" d="M 2944 4013 
L 2944 2803 
L 4684 2803 
L 4684 2272 
L 2944 2272 
L 2944 1063 
L 2419 1063 
L 2419 2272 
L 678 2272 
L 678 2803 
L 2419 2803 
L 2419 4013 
L 2944 4013 
z
M 678 531 
L 4684 531 
L 4684 0 
L 678 0 
L 678 531 
z
" transform="scale(0.015625)"/>
      <path id="DejaVuSans-36" d="M 2113 2584 
Q 1688 2584 1439 2293 
Q 1191 2003 1191 1497 
Q 1191 994 1439 701 
Q 1688 409 2113 409 
Q 2538 409 2786 701 
Q 3034 994 3034 1497 
Q 3034 2003 2786 2293 
Q 2538 2584 2113 2584 
z
M 3366 4563 
L 3366 3988 
Q 3128 4100 2886 4159 
Q 2644 4219 2406 4219 
Q 1781 4219 1451 3797 
Q 1122 3375 1075 2522 
Q 1259 2794 1537 2939 
Q 1816 3084 2150 3084 
Q 2853 3084 3261 2657 
Q 3669 2231 3669 1497 
Q 3669 778 3244 343 
Q 2819 -91 2113 -91 
Q 1303 -91 875 529 
Q 447 1150 447 2328 
Q 447 3434 972 4092 
Q 1497 4750 2381 4750 
Q 2619 4750 2861 4703 
Q 3103 4656 3366 4563 
z
" transform="scale(0.015625)"/>
     </defs>
     <use xlink:href="#DejaVuSans-64"/>
     <use xlink:href="#DejaVuSans-65" transform="translate(63.476562 0)"/>
     <use xlink:href="#DejaVuSans-63" transform="translate(125 0)"/>
     <use xlink:href="#DejaVuSans-6c" transform="translate(179.980469 0)"/>
     <use xlink:href="#DejaVuSans-69" transform="translate(207.763672 0)"/>
     <use xlink:href="#DejaVuSans-6e" transform="translate(235.546875 0)"/>
     <use xlink:href="#DejaVuSans-61" transform="translate(298.925781 0)"/>
     <use xlink:href="#DejaVuSans-74" transform="translate(360.205078 0)"/>
     <use xlink:href="#DejaVuSans-69" transform="translate(399.414062 0)"/>
     <use xlink:href="#DejaVuSans-6f" transform="translate(427.197266 0)"/>
     <use xlink:href="#DejaVuSans-6e" transform="translate(488.378906 0)"/>
     <use xlink:href="#DejaVuSans-3a" transform="translate(551.757812 0)"/>
     <use xlink:href="#DejaVuSans-20" transform="translate(585.449219 0)"/>
     <use xlink:href="#DejaVuSans-2d" transform="translate(617.236328 0)"/>
     <use xlink:href="#DejaVuSans-31" transform="translate(653.320312 0)"/>
     <use xlink:href="#DejaVuSans-34" transform="translate(716.943359 0)"/>
     <use xlink:href="#DejaVuSans-2e" transform="translate(780.566406 0)"/>
     <use xlink:href="#DejaVuSans-31" transform="translate(812.353516 0)"/>
     <use xlink:href="#DejaVuSans-32" transform="translate(875.976562 0)"/>
     <use xlink:href="#DejaVuSans-b0" transform="translate(939.599609 0)"/>
     <use xlink:href="#DejaVuSans-b1" transform="translate(989.599609 0)"/>
     <use xlink:href="#DejaVuSans-30" transform="translate(1073.388672 0)"/>
     <use xlink:href="#DejaVuSans-2e" transform="translate(1137.011719 0)"/>
     <use xlink:href="#DejaVuSans-30" transform="translate(1168.798828 0)"/>
     <use xlink:href="#DejaVuSans-36" transform="translate(1232.421875 0)"/>
     <use xlink:href="#DejaVuSans-b0" transform="translate(1296.044922 0)"/>
    </g>
   </g>
   <g id="text_16">
    <!-- Blodgett Peak -->
    <g style="fill: #1976d2" transform="translate(444.737137 68.909546) scale(0.1 -0.1)">
     <defs>
      <path id="DejaVuSans-42" d="M 1259 2228 
L 1259 519 
L 2272 519 
Q 2781 519 3026 730 
Q 3272 941 3272 1375 
Q 3272 1813 3026 2020 
Q 2781 2228 2272 2228 
L 1259 2228 
z
M 1259 4147 
L 1259 2741 
L 2194 2741 
Q 2656 2741 2882 2914 
Q 3109 3088 3109 3444 
Q 3109 3797 2882 3972 
Q 2656 4147 2194 4147 
L 1259 4147 
z
M 628 4666 
L 2241 4666 
Q 2963 4666 3353 4366 
Q 3744 4066 3744 3513 
Q 3744 3084 3544 2831 
Q 3344 2578 2956 2516 
Q 3422 2416 3680 2098 
Q 3938 1781 3938 1306 
Q 3938 681 3513 340 
Q 3088 0 2303 0 
L 628 0 
L 628 4666 
z
" transform="scale(0.015625)"/>
     </defs>
     <use xlink:href="#DejaVuSans-42"/>
     <use xlink:href="#DejaVuSans-6c" transform="translate(68.603516 0)"/>
     <use xlink:href="#DejaVuSans-6f" transform="translate(96.386719 0)"/>
     <use xlink:href="#DejaVuSans-64" transform="translate(157.568359 0)"/>
     <use xlink:href="#DejaVuSans-67" transform="translate(221.044922 0)"/>
     <use xlink:href="#DejaVuSans-65" transform="translate(284.521484 0)"/>
     <use xlink:href="#DejaVuSans-74" transform="translate(346.044922 0)"/>
     <use xlink:href="#DejaVuSans-74" transform="translate(385.253906 0)"/>
     <use xlink:href="#DejaVuSans-20" transform="translate(424.462891 0)"/>
     <use xlink:href="#DejaVuSans-50" transform="translate(456.25 0)"/>
     <use xlink:href="#DejaVuSans-65" transform="translate(512.927734 0)"/>
     <use xlink:href="#DejaVuSans-61" transform="translate(574.451172 0)"/>
     <use xlink:href="#DejaVuSans-6b" transform="translate(635.730469 0)"/>
    </g>
    <!-- (6 occultations) -->
    <g style="fill: #1976d2" transform="translate(436.115262 80.107359) scale(0.1 -0.1)">
     <use xlink:href="#DejaVuSans-28"/>
     <use xlink:href="#DejaVuSans-36" transform="translate(39.013672 0)"/>
     <use xlink:href="#DejaVuSans-20" transform="translate(102.636719 0)"/>
     <use xlink:href="#DejaVuSans-6f" transform="translate(134.423828 0)"/>
     <use xlink:href="#DejaVuSans-63" transform="translate(195.605469 0)"/>
     <use xlink:href="#DejaVuSans-63" transform="translate(250.585938 0)"/>
     <use xlink:href="#DejaVuSans-75" transform="translate(305.566406 0)"/>
     <use xlink:href="#DejaVuSans-6c" transform="translate(368.945312 0)"/>
     <use xlink:href="#DejaVuSans-74" transform="translate(396.728516 0)"/>
     <use xlink:href="#DejaVuSans-61" transform="translate(435.9375 0)"/>
     <use xlink:href="#DejaVuSans-74" transform="translate(497.216797 0)"/>
     <use xlink:href="#DejaVuSans-69" transform="translate(536.425781 0)"/>
     <use xlink:href="#DejaVuSans-6f" transform="translate(564.208984 0)"/>
     <use xlink:href="#DejaVuSans-6e" transform="translate(625.390625 0)"/>
     <use xlink:href="#DejaVuSans-73" transform="translate(688.769531 0)"/>
     <use xlink:href="#DejaVuSans-29" transform="translate(740.869141 0)"/>
    </g>
    <!-- declination: -4.87°±0.08° -->
    <g style="fill: #1976d2" transform="translate(385.860574 91.305171) scale(0.1 -0.1)">
     <defs>
      <path id="DejaVuSans-38" d="M 2034 2216 
Q 1584 2216 1326 1975 
Q 1069 1734 1069 1313 
Q 1069 891 1326 650 
Q 1584 409 2034 409 
Q 2484 409 2743 651 
Q 3003 894 3003 1313 
Q 3003 1734 2745 1975 
Q 2488 2216 2034 2216 
z
M 1403 2484 
Q 997 2584 770 2862 
Q 544 3141 544 3541 
Q 544 4100 942 4425 
Q 1341 4750 2034 4750 
Q 2731 4750 3128 4425 
Q 3525 4100 3525 3541 
Q 3525 3141 3298 2862 
Q 3072 2584 2669 2484 
Q 3125 2378 3379 2068 
Q 3634 1759 3634 1313 
Q 3634 634 3220 271 
Q 2806 -91 2034 -91 
Q 1263 -91 848 271 
Q 434 634 434 1313 
Q 434 1759 690 2068 
Q 947 2378 1403 2484 
z
M 1172 3481 
Q 1172 3119 1398 2916 
Q 1625 2713 2034 2713 
Q 2441 2713 2670 2916 
Q 2900 3119 2900 3481 
Q 2900 3844 2670 4047 
Q 2441 4250 2034 4250 
Q 1625 4250 1398 4047 
Q 1172 3844 1172 3481 
z
" transform="scale(0.015625)"/>
     </defs>
     <use xlink:href="#DejaVuSans-64"/>
     <use xlink:href="#DejaVuSans-65" transform="translate(63.476562 0)"/>
     <use xlink:href="#DejaVuSans-63" transform="translate(125 0)"/>
     <use xlink:href="#DejaVuSans-6c" transform="translate(179.980469 0)"/>
     <use xlink:href="#DejaVuSans-69" transform="translate(207.763672 0)"/>
     <use xlink:href="#DejaVuSans-6e" transform="translate(235.546875 0)"/>
     <use xlink:href="#DejaVuSans-61" transform="translate(298.925781 0)"/>
     <use xlink:href="#DejaVuSans-74" transform="translate(360.205078 0)"/>
     <use xlink:href="#DejaVuSans-69" transform="translate(399.414062 0)"/>
     <use xlink:href="#DejaVuSans-6f" transform="translate(427.197266 0)"/>
     <use xlink:href="#DejaVuSans-6e" transform="translate(488.378906 0)"/>
     <use xlink:href="#DejaVuSans-3a" transform="translate(551.757812 0)"/>
     <use xlink:href="#DejaVuSans-20" transform="translate(585.449219 0)"/>
     <use xlink:href="#DejaVuSans-2d" transform="translate(617.236328 0)"/>
     <use xlink:href="#DejaVuSans-34" transform="translate(653.320312 0)"/>
     <use xlink:href="#DejaVuSans-2e" transform="translate(716.943359 0)"/>
     <use xlink:href="#DejaVuSans-38" transform="translate(748.730469 0)"/>
     <use xlink:href="#DejaVuSans-37" transform="translate(812.353516 0)"/>
     <use xlink:href="#DejaVuSans-b0" transform="translate(875.976562 0)"/>
     <use xlink:href="#DejaVuSans-b1" transform="translate(925.976562 0)"/>
     <use xlink:href="#DejaVuSans-30" transform="translate(1009.765625 0)"/>
     <use xlink:href="#DejaVuSans-2e" transform="translate(1073.388672 0)"/>
     <use xlink:href="#DejaVuSans-30" transform="translate(1105.175781 0)"/>
     <use xlink:href="#DejaVuSans-38" transform="translate(1168.798828 0)"/>
     <use xlink:href="#DejaVuSans-b0" transform="translate(1232.421875 0)"/>
    </g>
   </g>
   <g id="text_17">
    <!-- Cheyenne Mountain -->
    <g style="fill: #388e3c" transform="translate(285.456273 348.800909) scale(0.1 -0.1)">
     <defs>
      <path id="DejaVuSans-68" d="M 3513 2113 
L 3513 0 
L 2938 0 
L 2938 2094 
Q 2938 2591 2744 2837 
Q 2550 3084 2163 3084 
Q 1697 3084 1428 2787 
Q 1159 2491 1159 1978 
L 1159 0 
L 581 0 
L 581 4863 
L 1159 4863 
L 1159 2956 
Q 1366 3272 1645 3428 
Q 1925 3584 2291 3584 
Q 2894 3584 3203 3211 
Q 3513 2838 3513 2113 
z
" transform="scale(0.015625)"/>
      <path id="DejaVuSans-4d" d="M 628 4666 
L 1569 4666 
L 2759 1491 
L 3956 4666 
L 4897 4666 
L 4897 0 
L 4281 0 
L 4281 4097 
L 3078 897 
L 2444 897 
L 1241 4097 
L 1241 0 
L 628 0 
L 628 4666 
z
" transform="scale(0.015625)"/>
     </defs>
     <use xlink:href="#DejaVuSans-43"/>
     <use xlink:href="#DejaVuSans-68" transform="translate(69.824219 0)"/>
     <use xlink:href="#DejaVuSans-65" transform="translate(133.203125 0)"/>
     <use xlink:href="#DejaVuSans-79" transform="translate(194.726562 0)"/>
     <use xlink:href="#DejaVuSans-65" transform="translate(253.90625 0)"/>
     <use xlink:href="#DejaVuSans-6e" transform="translate(315.429688 0)"/>
     <use xlink:href="#DejaVuSans-6e" transform="translate(378.808594 0)"/>
     <use xlink:href="#DejaVuSans-65" transform="translate(442.1875 0)"/>
     <use xlink:href="#DejaVuSans-20" transform="translate(503.710938 0)"/>
     <use xlink:href="#DejaVuSans-4d" transform="translate(535.498047 0)"/>
     <use xlink:href="#DejaVuSans-6f" transform="translate(621.777344 0)"/>
     <use xlink:href="#DejaVuSans-75" transform="translate(682.958984 0)"/>
     <use xlink:href="#DejaVuSans-6e" transform="translate(746.337891 0)"/>
     <use xlink:href="#DejaVuSans-74" transform="translate(809.716797 0)"/>
     <use xlink:href="#DejaVuSans-61" transform="translate(848.925781 0)"/>
     <use xlink:href="#DejaVuSans-69" transform="translate(910.205078 0)"/>
     <use xlink:href="#DejaVuSans-6e" transform="translate(937.988281 0)"/>
    </g>
    <!-- (6 occultations) -->
    <g style="fill: #388e3c" transform="translate(285.456273 359.998722) scale(0.1 -0.1)">
     <use xlink:href="#DejaVuSans-28"/>
     <use xlink:href="#DejaVuSans-36" transform="translate(39.013672 0)"/>
     <use xlink:href="#DejaVuSans-20" transform="translate(102.636719 0)"/>
     <use xlink:href="#DejaVuSans-6f" transform="translate(134.423828 0)"/>
     <use xlink:href="#DejaVuSans-63" transform="translate(195.605469 0)"/>
     <use xlink:href="#DejaVuSans-63" transform="translate(250.585938 0)"/>
     <use xlink:href="#DejaVuSans-75" transform="translate(305.566406 0)"/>
     <use xlink:href="#DejaVuSans-6c" transform="translate(368.945312 0)"/>
     <use xlink:href="#DejaVuSans-74" transform="translate(396.728516 0)"/>
     <use xlink:href="#DejaVuSans-61" transform="translate(435.9375 0)"/>
     <use xlink:href="#DejaVuSans-74" transform="translate(497.216797 0)"/>
     <use xlink:href="#DejaVuSans-69" transform="translate(536.425781 0)"/>
     <use xlink:href="#DejaVuSans-6f" transform="translate(564.208984 0)"/>
     <use xlink:href="#DejaVuSans-6e" transform="translate(625.390625 0)"/>
     <use xlink:href="#DejaVuSans-73" transform="translate(688.769531 0)"/>
     <use xlink:href="#DejaVuSans-29" transform="translate(740.869141 0)"/>
    </g>
    <!-- declination: -30.57°±0.09° -->
    <g style="fill: #388e3c" transform="translate(285.456273 371.196534) scale(0.1 -0.1)">
     <defs>
      <path id="DejaVuSans-39" d="M 703 97 
L 703 672 
Q 941 559 1184 500 
Q 1428 441 1663 441 
Q 2288 441 2617 861 
Q 2947 1281 2994 2138 
Q 2813 1869 2534 1725 
Q 2256 1581 1919 1581 
Q 1219 1581 811 2004 
Q 403 2428 403 3163 
Q 403 3881 828 4315 
Q 1253 4750 1959 4750 
Q 2769 4750 3195 4129 
Q 3622 3509 3622 2328 
Q 3622 1225 3098 567 
Q 2575 -91 1691 -91 
Q 1453 -91 1209 -44 
Q 966 3 703 97 
z
M 1959 2075 
Q 2384 2075 2632 2365 
Q 2881 2656 2881 3163 
Q 2881 3666 2632 3958 
Q 2384 4250 1959 4250 
Q 1534 4250 1286 3958 
Q 1038 3666 1038 3163 
Q 1038 2656 1286 2365 
Q 1534 2075 1959 2075 
z
" transform="scale(0.015625)"/>
     </defs>
     <use xlink:href="#DejaVuSans-64"/>
     <use xlink:href="#DejaVuSans-65" transform="translate(63.476562 0)"/>
     <use xlink:href="#DejaVuSans-63" transform="translate(125 0)"/>
     <use xlink:href="#DejaVuSans-6c" transform="translate(179.980469 0)"/>
     <use xlink:href="#DejaVuSans-69" transform="translate(207.763672 0)"/>
     <use xlink:href="#DejaVuSans-6e" transform="translate(235.546875 0)"/>
     <use xlink:href="#DejaVuSans-61" transform="translate(298.925781 0)"/>
     <use xlink:href="#DejaVuSans-74" transform="translate(360.205078 0)"/>
     <use xlink:href="#DejaVuSans-69" transform="translate(399.414062 0)"/>
     <use xlink:href="#DejaVuSans-6f" transform="translate(427.197266 0)"/>
     <use xlink:href="#DejaVuSans-6e" transform="translate(488.378906 0)"/>
     <use xlink:href="#DejaVuSans-3a" transform="translate(551.757812 0)"/>
     <use xlink:href="#DejaVuSans-20" transform="translate(585.449219 0)"/>
     <use xlink:href="#DejaVuSans-2d" transform="translate(617.236328 0)"/>
     <use xlink:href="#DejaVuSans-33" transform="translate(653.320312 0)"/>
     <use xlink:href="#DejaVuSans-30" transform="translate(716.943359 0)"/>
     <use xlink:href="#DejaVuSans-2e" transform="translate(780.566406 0)"/>
     <use xlink:href="#DejaVuSans-35" transform="translate(812.353516 0)"/>
     <use xlink:href="#DejaVuSans-37" transform="translate(875.976562 0)"/>
     <use xlink:href="#DejaVuSans-b0" transform="translate(939.599609 0)"/>
     <use xlink:href="#DejaVuSans-b1" transform="translate(989.599609 0)"/>
     <use xlink:href="#DejaVuSans-30" transform="translate(1073.388672 0)"/>
     <use xlink:href="#DejaVuSans-2e" transform="translate(1137.011719 0)"/>
     <use xlink:href="#DejaVuSans-30" transform="translate(1168.798828 0)"/>
     <use xlink:href="#DejaVuSans-39" transform="translate(1232.421875 0)"/>
     <use xlink:href="#DejaVuSans-b0" transform="translate(1296.044922 0)"/>
    </g>
   </g>
   <g id="text_18">
    <!-- Mount Rosa -->
    <g style="fill: #f57c00" transform="translate(330.303157 294.499262) scale(0.1 -0.1)">
     <defs>
      <path id="DejaVuSans-52" d="M 2841 2188 
Q 3044 2119 3236 1894 
Q 3428 1669 3622 1275 
L 4263 0 
L 3584 0 
L 2988 1197 
Q 2756 1666 2539 1819 
Q 2322 1972 1947 1972 
L 1259 1972 
L 1259 0 
L 628 0 
L 628 4666 
L 2053 4666 
Q 2853 4666 3247 4331 
Q 3641 3997 3641 3322 
Q 3641 2881 3436 2590 
Q 3231 2300 2841 2188 
z
M 1259 4147 
L 1259 2491 
L 2053 2491 
Q 2509 2491 2742 2702 
Q 2975 2913 2975 3322 
Q 2975 3731 2742 3939 
Q 2509 4147 2053 4147 
L 1259 4147 
z
" transform="scale(0.015625)"/>
     </defs>
     <use xlink:href="#DejaVuSans-4d"/>
     <use xlink:href="#DejaVuSans-6f" transform="translate(86.279297 0)"/>
     <use xlink:href="#DejaVuSans-75" transform="translate(147.460938 0)"/>
     <use xlink:href="#DejaVuSans-6e" transform="translate(210.839844 0)"/>
     <use xlink:href="#DejaVuSans-74" transform="translate(274.21875 0)"/>
     <use xlink:href="#DejaVuSans-20" transform="translate(313.427734 0)"/>
     <use xlink:href="#DejaVuSans-52" transform="translate(345.214844 0)"/>
     <use xlink:href="#DejaVuSans-6f" transform="translate(410.197266 0)"/>
     <use xlink:href="#DejaVuSans-73" transform="translate(471.378906 0)"/>
     <use xlink:href="#DejaVuSans-61" transform="translate(523.478516 0)"/>
    </g>
    <!-- (2 occultations) -->
    <g style="fill: #f57c00" transform="translate(330.303157 305.697074) scale(0.1 -0.1)">
     <use xlink:href="#DejaVuSans-28"/>
     <use xlink:href="#DejaVuSans-32" transform="translate(39.013672 0)"/>
     <use xlink:href="#DejaVuSans-20" transform="translate(102.636719 0)"/>
     <use xlink:href="#DejaVuSans-6f" transform="translate(134.423828 0)"/>
     <use xlink:href="#DejaVuSans-63" transform="translate(195.605469 0)"/>
     <use xlink:href="#DejaVuSans-63" transform="translate(250.585938 0)"/>
     <use xlink:href="#DejaVuSans-75" transform="translate(305.566406 0)"/>
     <use xlink:href="#DejaVuSans-6c" transform="translate(368.945312 0)"/>
     <use xlink:href="#DejaVuSans-74" transform="translate(396.728516 0)"/>
     <use xlink:href="#DejaVuSans-61" transform="translate(435.9375 0)"/>
     <use xlink:href="#DejaVuSans-74" transform="translate(497.216797 0)"/>
     <use xlink:href="#DejaVuSans-69" transform="translate(536.425781 0)"/>
     <use xlink:href="#DejaVuSans-6f" transform="translate(564.208984 0)"/>
     <use xlink:href="#DejaVuSans-6e" transform="translate(625.390625 0)"/>
     <use xlink:href="#DejaVuSans-73" transform="translate(688.769531 0)"/>
     <use xlink:href="#DejaVuSans-29" transform="translate(740.869141 0)"/>
    </g>
    <!-- declination: -25.22°±0.01° -->
    <g style="fill: #f57c00" transform="translate(330.303157 316.894887) scale(0.1 -0.1)">
     <use xlink:href="#DejaVuSans-64"/>
     <use xlink:href="#DejaVuSans-65" transform="translate(63.476562 0)"/>
     <use xlink:href="#DejaVuSans-63" transform="translate(125 0)"/>
     <use xlink:href="#DejaVuSans-6c" transform="translate(179.980469 0)"/>
     <use xlink:href="#DejaVuSans-69" transform="translate(207.763672 0)"/>
     <use xlink:href="#DejaVuSans-6e" transform="translate(235.546875 0)"/>
     <use xlink:href="#DejaVuSans-61" transform="translate(298.925781 0)"/>
     <use xlink:href="#DejaVuSans-74" transform="translate(360.205078 0)"/>
     <use xlink:href="#DejaVuSans-69" transform="translate(399.414062 0)"/>
     <use xlink:href="#DejaVuSans-6f" transform="translate(427.197266 0)"/>
     <use xlink:href="#DejaVuSans-6e" transform="translate(488.378906 0)"/>
     <use xlink:href="#DejaVuSans-3a" transform="translate(551.757812 0)"/>
     <use xlink:href="#DejaVuSans-20" transform="translate(585.449219 0)"/>
     <use xlink:href="#DejaVuSans-2d" transform="translate(617.236328 0)"/>
     <use xlink:href="#DejaVuSans-32" transform="translate(653.320312 0)"/>
     <use xlink:href="#DejaVuSans-35" transform="translate(716.943359 0)"/>
     <use xlink:href="#DejaVuSans-2e" transform="translate(780.566406 0)"/>
     <use xlink:href="#DejaVuSans-32" transform="translate(812.353516 0)"/>
     <use xlink:href="#DejaVuSans-32" transform="translate(875.976562 0)"/>
     <use xlink:href="#DejaVuSans-b0" transform="translate(939.599609 0)"/>
     <use xlink:href="#DejaVuSans-b1" transform="translate(989.599609 0)"/>
     <use xlink:href="#DejaVuSans-30" transform="translate(1073.388672 0)"/>
     <use xlink:href="#DejaVuSans-2e" transform="translate(1137.011719 0)"/>
     <use xlink:href="#DejaVuSans-30" transform="translate(1168.798828 0)"/>
     <use xlink:href="#DejaVuSans-31" transform="translate(1232.421875 0)"/>
     <use xlink:href="#DejaVuSans-b0" transform="translate(1296.044922 0)"/>
    </g>
   </g>
   <g id="text_19">
    <!-- Blue Mountain -->
    <g style="fill: #7b1fa2" transform="translate(191.863211 359.656203) scale(0.1 -0.1)">
     <use xlink:href="#DejaVuSans-42"/>
     <use xlink:href="#DejaVuSans-6c" transform="translate(68.603516 0)"/>
     <use xlink:href="#DejaVuSans-75" transform="translate(96.386719 0)"/>
     <use xlink:href="#DejaVuSans-65" transform="translate(159.765625 0)"/>
     <use xlink:href="#DejaVuSans-20" transform="translate(221.289062 0)"/>
     <use xlink:href="#DejaVuSans-4d" transform="translate(253.076172 0)"/>
     <use xlink:href="#DejaVuSans-6f" transform="translate(339.355469 0)"/>
     <use xlink:href="#DejaVuSans-75" transform="translate(400.537109 0)"/>
     <use xlink:href="#DejaVuSans-6e" transform="translate(463.916016 0)"/>
     <use xlink:href="#DejaVuSans-74" transform="translate(527.294922 0)"/>
     <use xlink:href="#DejaVuSans-61" transform="translate(566.503906 0)"/>
     <use xlink:href="#DejaVuSans-69" transform="translate(627.783203 0)"/>
     <use xlink:href="#DejaVuSans-6e" transform="translate(655.566406 0)"/>
    </g>
    <!-- (3 occultations) -->
    <g style="fill: #7b1fa2" transform="translate(185.769461 370.854016) scale(0.1 -0.1)">
     <use xlink:href="#DejaVuSans-28"/>
     <use xlink:href="#DejaVuSans-33" transform="translate(39.013672 0)"/>
     <use xlink:href="#DejaVuSans-20" transform="translate(102.636719 0)"/>
     <use xlink:href="#DejaVuSans-6f" transform="translate(134.423828 0)"/>
     <use xlink:href="#DejaVuSans-63" transform="translate(195.605469 0)"/>
     <use xlink:href="#DejaVuSans-63" transform="translate(250.585938 0)"/>
     <use xlink:href="#DejaVuSans-75" transform="translate(305.566406 0)"/>
     <use xlink:href="#DejaVuSans-6c" transform="translate(368.945312 0)"/>
     <use xlink:href="#DejaVuSans-74" transform="translate(396.728516 0)"/>
     <use xlink:href="#DejaVuSans-61" transform="translate(435.9375 0)"/>
     <use xlink:href="#DejaVuSans-74" transform="translate(497.216797 0)"/>
     <use xlink:href="#DejaVuSans-69" transform="translate(536.425781 0)"/>
     <use xlink:href="#DejaVuSans-6f" transform="translate(564.208984 0)"/>
     <use xlink:href="#DejaVuSans-6e" transform="translate(625.390625 0)"/>
     <use xlink:href="#DejaVuSans-73" transform="translate(688.769531 0)"/>
     <use xlink:href="#DejaVuSans-29" transform="translate(740.869141 0)"/>
    </g>
    <!-- declination: -31.48°±0.19° -->
    <g style="fill: #7b1fa2" transform="translate(129.152273 382.051828) scale(0.1 -0.1)">
     <use xlink:href="#DejaVuSans-64"/>
     <use xlink:href="#DejaVuSans-65" transform="translate(63.476562 0)"/>
     <use xlink:href="#DejaVuSans-63" transform="translate(125 0)"/>
     <use xlink:href="#DejaVuSans-6c" transform="translate(179.980469 0)"/>
     <use xlink:href="#DejaVuSans-69" transform="translate(207.763672 0)"/>
     <use xlink:href="#DejaVuSans-6e" transform="translate(235.546875 0)"/>
     <use xlink:href="#DejaVuSans-61" transform="translate(298.925781 0)"/>
     <use xlink:href="#DejaVuSans-74" transform="translate(360.205078 0)"/>
     <use xlink:href="#DejaVuSans-69" transform="translate(399.414062 0)"/>
     <use xlink:href="#DejaVuSans-6f" transform="translate(427.197266 0)"/>
     <use xlink:href="#DejaVuSans-6e" transform="translate(488.378906 0)"/>
     <use xlink:href="#DejaVuSans-3a" transform="translate(551.757812 0)"/>
     <use xlink:href="#DejaVuSans-20" transform="translate(585.449219 0)"/>
     <use xlink:href="#DejaVuSans-2d" transform="translate(617.236328 0)"/>
     <use xlink:href="#DejaVuSans-33" transform="translate(653.320312 0)"/>
     <use xlink:href="#DejaVuSans-31" transform="translate(716.943359 0)"/>
     <use xlink:href="#DejaVuSans-2e" transform="translate(780.566406 0)"/>
     <use xlink:href="#DejaVuSans-34" transform="translate(812.353516 0)"/>
     <use xlink:href="#DejaVuSans-38" transform="translate(875.976562 0)"/>
     <use xlink:href="#DejaVuSans-b0" transform="translate(939.599609 0)"/>
     <use xlink:href="#DejaVuSans-b1" transform="translate(989.599609 0)"/>
     <use xlink:href="#DejaVuSans-30" transform="translate(1073.388672 0)"/>
     <use xlink:href="#DejaVuSans-2e" transform="translate(1137.011719 0)"/>
     <use xlink:href="#DejaVuSans-31" transform="translate(1168.798828 0)"/>
     <use xlink:href="#DejaVuSans-39" transform="translate(1232.421875 0)"/>
     <use xlink:href="#DejaVuSans-b0" transform="translate(1296.044922 0)"/>
    </g>
   </g>
   <g id="text_20">
    <!-- Green Mountain -->
    <g style="fill: #0097a7" transform="translate(212.716653 297.464842) scale(0.1 -0.1)">
     <defs>
      <path id="DejaVuSans-47" d="M 3809 666 
L 3809 1919 
L 2778 1919 
L 2778 2438 
L 4434 2438 
L 4434 434 
Q 4069 175 3628 42 
Q 3188 -91 2688 -91 
Q 1594 -91 976 548 
Q 359 1188 359 2328 
Q 359 3472 976 4111 
Q 1594 4750 2688 4750 
Q 3144 4750 3555 4637 
Q 3966 4525 4313 4306 
L 4313 3634 
Q 3963 3931 3569 4081 
Q 3175 4231 2741 4231 
Q 1884 4231 1454 3753 
Q 1025 3275 1025 2328 
Q 1025 1384 1454 906 
Q 1884 428 2741 428 
Q 3075 428 3337 486 
Q 3600 544 3809 666 
z
" transform="scale(0.015625)"/>
     </defs>
     <use xlink:href="#DejaVuSans-47"/>
     <use xlink:href="#DejaVuSans-72" transform="translate(77.490234 0)"/>
     <use xlink:href="#DejaVuSans-65" transform="translate(116.353516 0)"/>
     <use xlink:href="#DejaVuSans-65" transform="translate(177.876953 0)"/>
     <use xlink:href="#DejaVuSans-6e" transform="translate(239.400391 0)"/>
     <use xlink:href="#DejaVuSans-20" transform="translate(302.779297 0)"/>
     <use xlink:href="#DejaVuSans-4d" transform="translate(334.566406 0)"/>
     <use xlink:href="#DejaVuSans-6f" transform="translate(420.845703 0)"/>
     <use xlink:href="#DejaVuSans-75" transform="translate(482.027344 0)"/>
     <use xlink:href="#DejaVuSans-6e" transform="translate(545.40625 0)"/>
     <use xlink:href="#DejaVuSans-74" transform="translate(608.785156 0)"/>
     <use xlink:href="#DejaVuSans-61" transform="translate(647.994141 0)"/>
     <use xlink:href="#DejaVuSans-69" transform="translate(709.273438 0)"/>
     <use xlink:href="#DejaVuSans-6e" transform="translate(737.056641 0)"/>
    </g>
    <!-- (3 occultations) -->
    <g style="fill: #0097a7" transform="translate(214.77134 308.662655) scale(0.1 -0.1)">
     <use xlink:href="#DejaVuSans-28"/>
     <use xlink:href="#DejaVuSans-33" transform="translate(39.013672 0)"/>
     <use xlink:href="#DejaVuSans-20" transform="translate(102.636719 0)"/>
     <use xlink:href="#DejaVuSans-6f" transform="translate(134.423828 0)"/>
     <use xlink:href="#DejaVuSans-63" transform="translate(195.605469 0)"/>
     <use xlink:href="#DejaVuSans-63" transform="translate(250.585938 0)"/>
     <use xlink:href="#DejaVuSans-75" transform="translate(305.566406 0)"/>
     <use xlink:href="#DejaVuSans-6c" transform="translate(368.945312 0)"/>
     <use xlink:href="#DejaVuSans-74" transform="translate(396.728516 0)"/>
     <use xlink:href="#DejaVuSans-61" transform="translate(435.9375 0)"/>
     <use xlink:href="#DejaVuSans-74" transform="translate(497.216797 0)"/>
     <use xlink:href="#DejaVuSans-69" transform="translate(536.425781 0)"/>
     <use xlink:href="#DejaVuSans-6f" transform="translate(564.208984 0)"/>
     <use xlink:href="#DejaVuSans-6e" transform="translate(625.390625 0)"/>
     <use xlink:href="#DejaVuSans-73" transform="translate(688.769531 0)"/>
     <use xlink:href="#DejaVuSans-29" transform="translate(740.869141 0)"/>
    </g>
    <!-- declination: -29.13°±0.02° -->
    <g style="fill: #0097a7" transform="translate(158.154153 319.860467) scale(0.1 -0.1)">
     <use xlink:href="#DejaVuSans-64"/>
     <use xlink:href="#DejaVuSans-65" transform="translate(63.476562 0)"/>
     <use xlink:href="#DejaVuSans-63" transform="translate(125 0)"/>
     <use xlink:href="#DejaVuSans-6c" transform="translate(179.980469 0)"/>
     <use xlink:href="#DejaVuSans-69" transform="translate(207.763672 0)"/>
     <use xlink:href="#DejaVuSans-6e" transform="translate(235.546875 0)"/>
     <use xlink:href="#DejaVuSans-61" transform="translate(298.925781 0)"/>
     <use xlink:href="#DejaVuSans-74" transform="translate(360.205078 0)"/>
     <use xlink:href="#DejaVuSans-69" transform="translate(399.414062 0)"/>
     <use xlink:href="#DejaVuSans-6f" transform="translate(427.197266 0)"/>
     <use xlink:href="#DejaVuSans-6e" transform="translate(488.378906 0)"/>
     <use xlink:href="#DejaVuSans-3a" transform="translate(551.757812 0)"/>
     <use xlink:href="#DejaVuSans-20" transform="translate(585.449219 0)"/>
     <use xlink:href="#DejaVuSans-2d" transform="translate(617.236328 0)"/>
     <use xlink:href="#DejaVuSans-32" transform="translate(653.320312 0)"/>
     <use xlink:href="#DejaVuSans-39" transform="translate(716.943359 0)"/>
     <use xlink:href="#DejaVuSans-2e" transform="translate(780.566406 0)"/>
     <use xlink:href="#DejaVuSans-31" transform="translate(812.353516 0)"/>
     <use xlink:href="#DejaVuSans-33" transform="translate(875.976562 0)"/>
     <use xlink:href="#DejaVuSans-b0" transform="translate(939.599609 0)"/>
     <use xlink:href="#DejaVuSans-b1" transform="translate(989.599609 0)"/>
     <use xlink:href="#DejaVuSans-30" transform="translate(1073.388672 0)"/>
     <use xlink:href="#DejaVuSans-2e" transform="translate(1137.011719 0)"/>
     <use xlink:href="#DejaVuSans-30" transform="translate(1168.798828 0)"/>
     <use xlink:href="#DejaVuSans-32" transform="translate(1232.421875 0)"/>
     <use xlink:href="#DejaVuSans-b0" transform="translate(1296.044922 0)"/>
    </g>
   </g>
   <g id="text_21">
    <!-- North Peak -->
    <g style="fill: #ff00ff" transform="translate(130.478838 495.493268) scale(0.1 -0.1)">
     <defs>
      <path id="DejaVuSans-4e" d="M 628 4666 
L 1478 4666 
L 3547 763 
L 3547 4666 
L 4159 4666 
L 4159 0 
L 3309 0 
L 1241 3903 
L 1241 0 
L 628 0 
L 628 4666 
z
" transform="scale(0.015625)"/>
     </defs>
     <use xlink:href="#DejaVuSans-4e"/>
     <use xlink:href="#DejaVuSans-6f" transform="translate(74.804688 0)"/>
     <use xlink:href="#DejaVuSans-72" transform="translate(135.986328 0)"/>
     <use xlink:href="#DejaVuSans-74" transform="translate(177.099609 0)"/>
     <use xlink:href="#DejaVuSans-68" transform="translate(216.308594 0)"/>
     <use xlink:href="#DejaVuSans-20" transform="translate(279.6875 0)"/>
     <use xlink:href="#DejaVuSans-50" transform="translate(311.474609 0)"/>
     <use xlink:href="#DejaVuSans-65" transform="translate(368.152344 0)"/>
     <use xlink:href="#DejaVuSans-61" transform="translate(429.675781 0)"/>
     <use xlink:href="#DejaVuSans-6b" transform="translate(490.955078 0)"/>
    </g>
    <!-- (3 occultations) -->
    <g style="fill: #ff00ff" transform="translate(130.478838 506.69108) scale(0.1 -0.1)">
     <use xlink:href="#DejaVuSans-28"/>
     <use xlink:href="#DejaVuSans-33" transform="translate(39.013672 0)"/>
     <use xlink:href="#DejaVuSans-20" transform="translate(102.636719 0)"/>
     <use xlink:href="#DejaVuSans-6f" transform="translate(134.423828 0)"/>
     <use xlink:href="#DejaVuSans-63" transform="translate(195.605469 0)"/>
     <use xlink:href="#DejaVuSans-63" transform="translate(250.585938 0)"/>
     <use xlink:href="#DejaVuSans-75" transform="translate(305.566406 0)"/>
     <use xlink:href="#DejaVuSans-6c" transform="translate(368.945312 0)"/>
     <use xlink:href="#DejaVuSans-74" transform="translate(396.728516 0)"/>
     <use xlink:href="#DejaVuSans-61" transform="translate(435.9375 0)"/>
     <use xlink:href="#DejaVuSans-74" transform="translate(497.216797 0)"/>
     <use xlink:href="#DejaVuSans-69" transform="translate(536.425781 0)"/>
     <use xlink:href="#DejaVuSans-6f" transform="translate(564.208984 0)"/>
     <use xlink:href="#DejaVuSans-6e" transform="translate(625.390625 0)"/>
     <use xlink:href="#DejaVuSans-73" transform="translate(688.769531 0)"/>
     <use xlink:href="#DejaVuSans-29" transform="translate(740.869141 0)"/>
    </g>
    <!-- declination: -46.84°±0.04° -->
    <g style="fill: #ff00ff" transform="translate(130.478838 517.888893) scale(0.1 -0.1)">
     <use xlink:href="#DejaVuSans-64"/>
     <use xlink:href="#DejaVuSans-65" transform="translate(63.476562 0)"/>
     <use xlink:href="#DejaVuSans-63" transform="translate(125 0)"/>
     <use xlink:href="#DejaVuSans-6c" transform="translate(179.980469 0)"/>
     <use xlink:href="#DejaVuSans-69" transform="translate(207.763672 0)"/>
     <use xlink:href="#DejaVuSans-6e" transform="translate(235.546875 0)"/>
     <use xlink:href="#DejaVuSans-61" transform="translate(298.925781 0)"/>
     <use xlink:href="#DejaVuSans-74" transform="translate(360.205078 0)"/>
     <use xlink:href="#DejaVuSans-69" transform="translate(399.414062 0)"/>
     <use xlink:href="#DejaVuSans-6f" transform="translate(427.197266 0)"/>
     <use xlink:href="#DejaVuSans-6e" transform="translate(488.378906 0)"/>
     <use xlink:href="#DejaVuSans-3a" transform="translate(551.757812 0)"/>
     <use xlink:href="#DejaVuSans-20" transform="translate(585.449219 0)"/>
     <use xlink:href="#DejaVuSans-2d" transform="translate(617.236328 0)"/>
     <use xlink:href="#DejaVuSans-34" transform="translate(653.320312 0)"/>
     <use xlink:href="#DejaVuSans-36" transform="translate(716.943359 0)"/>
     <use xlink:href="#DejaVuSans-2e" transform="translate(780.566406 0)"/>
     <use xlink:href="#DejaVuSans-38" transform="translate(812.353516 0)"/>
     <use xlink:href="#DejaVuSans-34" transform="translate(875.976562 0)"/>
     <use xlink:href="#DejaVuSans-b0" transform="translate(939.599609 0)"/>
     <use xlink:href="#DejaVuSans-b1" transform="translate(989.599609 0)"/>
     <use xlink:href="#DejaVuSans-30" transform="translate(1073.388672 0)"/>
     <use xlink:href="#DejaVuSans-2e" transform="translate(1137.011719 0)"/>
     <use xlink:href="#DejaVuSans-30" transform="translate(1168.798828 0)"/>
     <use xlink:href="#DejaVuSans-34" transform="translate(1232.421875 0)"/>
     <use xlink:href="#DejaVuSans-b0" transform="translate(1296.044922 0)"/>
    </g>
   </g>
  </g>
 </g>
 <defs>
  <clipPath id="p4a0e3314aa">
   <rect x="52.854063" y="7.2" width="558" height="554.4"/>
  </clipPath>
 </defs>
</svg>
